<?xml version="1.0" encoding="UTF-8"?>
<svg version="1.1" xmlns="http://www.w3.org/2000/svg" width="1080" height="1080">
<path d="M0 0 C1.08661926 0.00182281 2.17323853 0.00364563 3.29278564 0.00552368 C62.60657037 0.17216898 122.38701747 12.53362373 176.11621094 38.12207031 C178.81078295 39.4006547 181.51787602 40.65005415 184.2265625 41.8984375 C217.54636339 57.3768543 248.54132478 77.63177386 276.625 101.3125 C277.15802734 101.76061035 277.69105469 102.2087207 278.24023438 102.67041016 C290.48583055 112.98561446 302.15486916 123.76320807 313.5 135.0625 C314.29688232 135.85470947 315.09376465 136.64691895 315.91479492 137.46313477 C320.69072458 142.25209014 325.22867576 147.1746597 329.625 152.3125 C330.57441532 153.3955014 331.52488413 154.47758045 332.4765625 155.55859375 C340.27703837 164.50104371 347.56228746 173.7787036 354.625 183.3125 C355.1303125 183.99151367 355.635625 184.67052734 356.15625 185.37011719 C398.03211814 241.99523316 424.68145761 311.14022516 434.875 380.5 C435.02614258 381.51779541 435.17728516 382.53559082 435.33300781 383.58422852 C436.96291953 395.43788109 437.72966319 407.38563517 438.625 419.3125 C439.8725708 419.30583817 441.1201416 419.29917633 442.40551758 419.29231262 C454.17591408 419.23143675 465.94627853 419.18649618 477.71679688 419.15706348 C483.76780775 419.14142306 489.8186913 419.12021414 495.86962891 419.08618164 C501.71163175 419.05353074 507.5535123 419.03563478 513.39559937 419.02786827 C515.62187627 419.02233509 517.84814665 419.01153014 520.07437134 418.99530983 C523.19816433 418.97345974 526.3214551 418.97053629 529.4453125 418.97192383 C530.81880608 418.95574509 530.81880608 418.95574509 532.220047 418.9392395 C540.45605835 418.97869604 546.92844555 420.98141578 553.0859375 426.6328125 C558.28123792 432.30281043 559.9674149 438.42927216 559.83203125 445.94921875 C559.17458033 453.45408301 555.34136402 459.49658978 549.625 464.3125 C543.59148675 468.22578399 538.43441192 468.87668768 531.35351562 468.76660156 C530.35748322 468.76718567 529.36145081 468.76776978 528.3352356 468.76837158 C525.06687685 468.76560107 521.79944799 468.73455726 518.53125 468.703125 C516.25582375 468.69565896 513.98039105 468.68996774 511.70495605 468.68597412 C505.73390764 468.67074654 499.76325221 468.63148911 493.7923584 468.5871582 C487.6923555 468.54614364 481.59228872 468.52794988 475.4921875 468.5078125 C463.53628626 468.4649924 451.58067589 468.39677565 439.625 468.3125 C439.65422924 468.97082132 439.68345848 469.62914265 439.71357346 470.3074131 C439.8471069 473.32291615 439.97971281 476.33845932 440.11230469 479.35400391 C440.15829803 480.38952896 440.20429138 481.42505402 440.25167847 482.49195862 C440.57611699 489.89139822 440.84820328 497.28003328 440.875 504.6875 C440.88112305 505.76475342 440.88724609 506.84200684 440.89355469 507.9519043 C440.85230722 515.22285513 440.19687602 522.10936255 438.34082031 529.15185547 C437.78734278 531.23565277 437.78734278 531.23565277 437.625 534.3125 C439.4093951 537.04310457 439.4093951 537.04310457 441.625 539.3125 C445.87341782 549.48691601 440.77076574 565.56259367 437.625 575.3125 C437.24045654 576.54516602 437.24045654 576.54516602 436.84814453 577.80273438 C427.0993668 608.76877677 411.47752778 638.83646277 390.8125 664 C388.27181838 667.03001402 388.27181838 667.03001402 389.0625 669.9375 C389.578125 670.72125 390.09375 671.505 390.625 672.3125 C393.31907393 676.7680838 394.45846377 680.51306123 394.2890625 685.6875 C393.1906053 690.02963672 390.33070975 692.47545852 387.2421875 695.59765625 C379.33108069 703.80395362 373.74940942 713.65982251 368.25 723.5625 C359.82397937 738.72909001 350.74652308 752.83155489 339.07763672 765.70849609 C337.65438615 767.28005176 336.24984737 768.86668669 334.84765625 770.45703125 C310.91040049 797.37733625 279.92632731 816.92100617 247.625 832.3125 C246.95871582 832.63041504 246.29243164 832.94833008 245.60595703 833.27587891 C226.59600053 842.24610257 206.70846784 849.16790871 186.6875 855.5 C185.44315186 855.89888428 184.19880371 856.29776855 182.91674805 856.70874023 C181.75957275 857.06653564 180.60239746 857.42433105 179.41015625 857.79296875 C177.87693726 858.27092896 177.87693726 858.27092896 176.31274414 858.75854492 C173.61259153 859.31505744 172.18420932 859.24183886 169.625 858.3125 C170.285 856.3325 170.945 854.3525 171.625 852.3125 C168.325 852.9725 165.025 853.6325 161.625 854.3125 C162.12 853.36375 162.615 852.415 163.125 851.4375 C164.76924369 848.58971834 164.76924369 848.58971834 164.625 846.3125 C159.01057332 845.93820489 154.52874626 847.05034596 149.17578125 848.75390625 C146.625 849.3125 146.625 849.3125 142.625 848.3125 C144.935 843.6925 147.245 839.0725 149.625 834.3125 C145.82742188 834.83650391 145.82742188 834.83650391 141.953125 835.37109375 C139.46087747 835.71275211 136.96848382 836.05332503 134.47607422 836.39379883 C132.76335391 836.62834538 131.05078412 836.86399405 129.33837891 837.10083008 C117.45190022 838.74381793 105.58169466 840.38377592 93.5625 840.5625 C92.49902344 840.58828125 91.43554688 840.6140625 90.33984375 840.640625 C87.625 840.3125 87.625 840.3125 85.80859375 838.95703125 C83.92288611 836.33695562 83.74302827 834.55827738 83.625 831.3125 C84.42449417 827.90573823 85.47007308 824.61415549 86.625 821.3125 C85.56667969 821.56644531 84.50835938 821.82039062 83.41796875 822.08203125 C69.27663229 825.33577604 55.06288233 826.98916336 40.625 828.3125 C39.43076416 828.42271484 39.43076416 828.42271484 38.21240234 828.53515625 C15.0796031 830.55089959 -8.30513747 829.5475054 -31.375 827.3125 C-32.30989258 827.22661621 -33.24478516 827.14073242 -34.20800781 827.05224609 C-72.95132698 823.34010202 -112.25319907 812.0175443 -147.375 795.3125 C-148.07882812 794.97798828 -148.78265625 794.64347656 -149.5078125 794.29882812 C-153.51434167 792.37434361 -157.47869575 790.37801105 -161.42138672 788.32617188 C-163.43218561 787.28282808 -165.45192356 786.2583273 -167.47265625 785.234375 C-188.30021592 774.57198391 -207.97313888 761.44199383 -225.89453125 746.39453125 C-227.53906711 745.01415706 -229.20326047 743.65684747 -230.88671875 742.32421875 C-245.85658077 730.44231033 -259.96543862 716.83898656 -272.375 702.3125 C-273.26738203 701.29482945 -274.16068697 700.27796778 -275.0546875 699.26171875 C-304.64409559 665.45504856 -327.15718713 626.11509599 -343.375 584.3125 C-343.07730713 585.30056641 -342.77961426 586.28863281 -342.47290039 587.30664062 C-341.36129393 591.00231509 -340.25816519 594.70047644 -339.1574707 598.39941406 C-338.68156018 599.99449702 -338.20340839 601.58891316 -337.72290039 603.18261719 C-337.02928836 605.48457362 -336.34399658 607.78887442 -335.66015625 610.09375 C-335.44657974 610.79616821 -335.23300323 611.49858643 -335.01295471 612.22229004 C-333.63176179 616.91594813 -332.87383145 621.44352318 -332.375 626.3125 C-338.02950445 624.42766518 -340.24003016 617.57736936 -342.79589844 612.47705078 C-344.15035861 609.62486081 -345.45860665 606.75625073 -346.75 603.875 C-347.19988281 602.89595703 -347.64976562 601.91691406 -348.11328125 600.90820312 C-351.375 593.69573993 -351.375 593.69573993 -351.375 590.3125 C-352.035 590.3125 -352.695 590.3125 -353.375 590.3125 C-366.86149448 556.35740219 -376.95007982 521.65516822 -381.375 485.3125 C-381.46113556 484.63465454 -381.54727112 483.95680908 -381.63601685 483.25842285 C-383.50186609 468.27970248 -383.734359 453.39326626 -383.6875 438.3125 C-383.68567719 437.09605804 -383.68385437 435.87961609 -383.68197632 434.62631226 C-383.63743393 416.98070624 -383.20675259 399.7573223 -380.375 382.3125 C-380.12556641 380.65468506 -380.12556641 380.65468506 -379.87109375 378.96337891 C-370.80518074 319.22069102 -347.81564381 259.76008406 -311.375 211.3125 C-320.52997348 222.69598677 -328.03993178 234.70038669 -335.375 247.3125 C-335.80570801 248.04855469 -336.23641602 248.78460938 -336.68017578 249.54296875 C-349.05270659 270.80073506 -359.39227856 293.05048155 -367.375 316.3125 C-367.65923828 317.13621094 -367.94347656 317.95992188 -368.23632812 318.80859375 C-381.38126102 357.38817994 -387.59532017 398.05643771 -387.625 438.75 C-387.62567474 439.59399353 -387.62634949 440.43798706 -387.62704468 441.30755615 C-387.5548861 498.80917927 -374.12019681 555.07306701 -350.375 607.3125 C-349.91593262 608.32554199 -349.45686523 609.33858398 -348.98388672 610.38232422 C-340.38100629 629.21223659 -330.16950318 646.29734038 -318.625 663.44921875 C-313.70531045 670.7768043 -309.13694136 678.29433679 -304.68359375 685.9140625 C-297.85484103 697.54139822 -290.52074615 708.56606537 -282.375 719.3125 C-281.89675781 719.94381836 -281.41851562 720.57513672 -280.92578125 721.22558594 C-266.70529253 739.87752947 -251.14703158 757.96658457 -233.375 773.3125 C-231.43255304 775.05700739 -229.49516774 776.8071648 -227.5625 778.5625 C-226.68980469 779.35140625 -225.81710938 780.1403125 -224.91796875 780.953125 C-222.375 783.3125 -222.375 783.3125 -220.06640625 785.78515625 C-216.70192941 788.94454161 -213.08466423 791.15927205 -209.125 793.5 C-208.32852051 793.97703369 -207.53204102 794.45406738 -206.71142578 794.94555664 C-205.06309077 795.93106997 -203.41285182 796.91340571 -201.76074219 797.89257812 C-199.58299797 799.18870587 -197.41863681 800.50405438 -195.2578125 801.828125 C-118.32342995 848.59640353 -29.73980527 863.66900565 59.01379395 863.38116455 C62.59512718 863.37070735 66.17646822 863.36632035 69.7578125 863.36132812 C76.71355978 863.35078483 83.66927767 863.33385053 90.625 863.3125 C90.625 863.9725 90.625 864.6325 90.625 865.3125 C74.05156057 874.43173406 60.13925742 880.45595417 41.00390625 880.48046875 C39.99520477 880.48474884 38.9865033 880.48902893 37.94723511 880.49343872 C34.69394459 880.50340463 31.44080286 880.50349622 28.1875 880.5 C27.07698273 880.49906342 25.96646545 880.49812683 24.82229614 880.49716187 C-61.81301846 880.33812611 -149.16376365 854.2261495 -220.375 804.3125 C-220.95894531 803.90580078 -221.54289063 803.49910156 -222.14453125 803.08007812 C-238.19366088 791.87365972 -253.39849807 779.77042277 -267.86328125 766.578125 C-269.24825166 765.32885154 -270.63976655 764.08629803 -272.05786133 762.87475586 C-277.62039231 758.10778218 -282.82734987 753.01334493 -287.9934082 747.82446289 C-289.43525221 746.37725615 -290.88237116 744.93547974 -292.33007812 743.49414062 C-297.55715735 738.27153832 -302.61182487 732.96283949 -307.375 727.3125 C-308.17780396 726.3697522 -308.17780396 726.3697522 -308.99682617 725.40795898 C-365.17959175 659.05598677 -399.42672914 579.08428138 -411.375 493.3125 C-411.55434082 492.03632812 -411.73368164 490.76015625 -411.91845703 489.4453125 C-416.75367919 453.10672133 -416.57109863 414.58380311 -411.375 378.3125 C-411.20339355 377.09127441 -411.03178711 375.87004883 -410.85498047 374.61181641 C-402.22873903 314.93734365 -381.7676729 256.88053936 -350.375 205.3125 C-349.82875977 204.4148291 -349.28251953 203.5171582 -348.71972656 202.59228516 C-337.35207985 184.05582301 -324.64607557 166.75712166 -310.78125 150.02294922 C-309.5455591 148.51995435 -308.33332092 146.99774186 -307.125 145.47265625 C-297.5853101 133.4577059 -286.68507952 122.55131645 -275.875 111.6875 C-275.24134521 111.04917236 -274.60769043 110.41084473 -273.95483398 109.75317383 C-269.59196717 105.40518758 -265.04244873 101.32944977 -260.375 97.3125 C-259.28047387 96.35114333 -258.1866806 95.38895142 -257.09375 94.42578125 C-201.64258923 45.96799845 -132.20232513 15.04634453 -59.5625 4.0625 C-58.06396484 3.83578613 -58.06396484 3.83578613 -56.53515625 3.60449219 C-37.71146934 0.93860558 -18.99799987 -0.06664876 0 0 Z M-89.55664062 71.69262695 C-98.09940222 74.97781716 -106.7689184 77.57261671 -115.55526733 80.10668945 C-147.78714999 88.5473482 -147.78714999 88.5473482 -174.375 107.3125 C-177.81067642 110.98031672 -181.19364991 113.66301573 -185.5 116.25 C-186.068396 116.59426025 -186.63679199 116.93852051 -187.22241211 117.29321289 C-190.73469302 119.40136532 -194.30788397 121.3535388 -197.9375 123.25 C-207.29530744 128.28254179 -215.36476372 135.06441249 -223.12109375 142.26953125 C-224.68208527 143.68443344 -226.29824435 145.03990464 -227.953125 146.34375 C-230.13459608 148.11707488 -231.87930783 149.85978247 -233.6875 152 C-235.49205599 154.11822345 -237.29314237 156.22373231 -239.1796875 158.26953125 C-249.89850499 169.90011537 -258.77967671 183.07722343 -267.375 196.3125 C-267.045 196.9725 -266.715 197.6325 -266.375 198.3125 C-265.3708606 197.29265015 -265.3708606 197.29265015 -264.34643555 196.25219727 C-261.81145127 193.68043875 -259.26938153 191.11577683 -256.7253418 188.55297852 C-255.63459309 187.45230081 -254.5456601 186.34982017 -253.45874023 185.24536133 C-246.42396863 178.10011294 -239.24655093 171.54015345 -231.375 165.3125 C-230.34715353 164.44946467 -229.32371528 163.58109233 -228.30859375 162.703125 C-194.97714672 134.11840986 -154.76214109 112.58414296 -113.375 98.3125 C-112.27188477 97.93206543 -111.16876953 97.55163086 -110.03222656 97.15966797 C-85.15874028 88.72335743 -59.51149036 82.81495798 -33.35424805 80.19775391 C-32.45359619 80.1054248 -31.55294434 80.0130957 -30.625 79.91796875 C-29.84640625 79.84731201 -29.0678125 79.77665527 -28.265625 79.70385742 C-26.14091741 79.44448129 -26.14091741 79.44448129 -24.375 77.3125 C-44.63931285 71.27529366 -44.63931285 71.27529366 -65.375 67.3125 C-66.79232422 67.08820313 -66.79232422 67.08820313 -68.23828125 66.859375 C-76.00635272 66.20013273 -82.45511425 68.92972884 -89.55664062 71.69262695 Z M-4.95703125 70.5546875 C-7.51894191 73.59580762 -7.51894191 73.59580762 -8.375 77.3125 C-7.2597998 77.32708252 -6.14459961 77.34166504 -4.99560547 77.35668945 C54.04823118 78.18733751 111.50779509 85.43942086 165.41650391 111.26416016 C167.56120557 112.28221775 169.71933506 113.26178605 171.88671875 114.23046875 C205.37091061 129.31709624 241.24425368 151.79770105 266.27734375 179.0546875 C267.56144515 180.53993942 267.56144515 180.53993942 269.625 180.3125 C269.625 180.9725 269.625 181.6325 269.625 182.3125 C271.16205089 183.85490841 271.16205089 183.85490841 273.16015625 185.453125 C277.42172676 189.07991372 281.26184006 192.96084217 285.0625 197.0625 C285.71718262 197.76640869 286.37186523 198.47031738 287.04638672 199.19555664 C292.14863104 204.7201471 297.00256207 210.37839592 301.625 216.3125 C302.32326904 217.19397705 302.32326904 217.19397705 303.03564453 218.09326172 C348.18981275 275.14450903 374.4747684 341.67402819 383.23950195 413.75415039 C383.56717102 416.42458589 383.56717102 416.42458589 384.625 419.3125 C385.285 419.3125 385.945 419.3125 386.625 419.3125 C387.48087336 395.37182031 384.76642806 371.30727091 374.9375 349.25 C372.47343779 343.13943086 372.04281788 337.31603731 371.625 330.8125 C369.13297977 292.67955308 350.18370444 259.14986008 329.33203125 227.9921875 C327.61729114 225.42596317 325.91768004 222.85014806 324.21875 220.2734375 C318.51856598 211.68933609 312.79853465 203.73466444 305.625 196.3125 C304.42832349 194.92452584 303.23940802 193.52977559 302.0625 192.125 C299.26070254 188.91566836 296.27449689 186.14892841 293.0234375 183.40234375 C291.16671213 181.78451301 289.37885697 180.14322355 287.6015625 178.44140625 C281.34126965 172.45875812 274.94946001 166.819017 268.0625 161.5625 C267.41547119 161.06862793 266.76844238 160.57475586 266.10180664 160.06591797 C263.95975338 158.45693577 261.79734146 156.88037735 259.625 155.3125 C258.16199463 154.25107788 258.16199463 154.25107788 256.66943359 153.16821289 C249.19444255 147.85650203 241.54940025 143.43375735 233.375 139.25 C218.11784416 131.29781517 203.5861658 122.2873511 189.47265625 112.43359375 C161.37812626 92.84204302 129.01224993 85.32600323 95.71484375 80.29342651 C85.2821369 78.68445692 74.99879556 76.2259721 64.890625 73.19140625 C58.12081714 71.36938859 51.80458822 71.97798618 45.00756836 73.49316406 C31.7974919 76.41695576 19.78826023 74.22566795 6.88867188 70.63452148 C0.73906061 68.65188668 0.73906061 68.65188668 -4.95703125 70.5546875 Z M-184.375 161.3125 C-185.10090332 161.80782227 -185.82680664 162.30314453 -186.57470703 162.81347656 C-195.50436982 168.94034169 -204.1183491 175.29434673 -212.375 182.3125 C-213.3753125 183.14007813 -214.375625 183.96765625 -215.40625 184.8203125 C-225.94689655 193.56598218 -236.76897563 202.58348849 -245.52734375 213.15625 C-247.05929451 214.94406569 -248.62617708 216.64488881 -250.25390625 218.34375 C-257.83748661 226.27333621 -264.59454365 234.5271572 -271.0078125 243.42773438 C-272.23415652 245.1183372 -273.49024722 246.78726771 -274.75 248.453125 C-329.4831895 322.04707575 -349.48195511 415.91289295 -336.625 505.9375 C-327.95108371 562.59722971 -305.37008069 617.78812769 -270.375 663.3125 C-269.88660645 663.95493652 -269.39821289 664.59737305 -268.89501953 665.25927734 C-263.66291566 672.12937947 -258.25173258 678.74899567 -252.3984375 685.10546875 C-250.63051137 687.03380517 -248.93653954 689.00097978 -247.25 691 C-243.5272878 695.2709501 -239.54624758 699.28699111 -235.5625 703.3125 C-234.89138184 703.99658936 -234.22026367 704.68067871 -233.52880859 705.38549805 C-232.89410645 706.02140869 -232.2594043 706.65731934 -231.60546875 707.3125 C-231.03207764 707.89 -230.45868652 708.4675 -229.86791992 709.0625 C-228.44394512 710.52649031 -228.44394512 710.52649031 -226.375 710.3125 C-226.375 710.9725 -226.375 711.6325 -226.375 712.3125 C-223.95986124 714.89447401 -221.09271793 717.05915404 -218.375 719.3125 C-217.52180176 720.0240625 -217.52180176 720.0240625 -216.65136719 720.75 C-198.12024876 736.16850727 -178.48571646 749.74386669 -157.29394531 761.26708984 C-155.43747645 762.27846385 -153.5895335 763.30411301 -151.7421875 764.33203125 C-147.9909304 766.40135682 -144.1975685 768.37839028 -140.375 770.3125 C-139.70742676 770.65216797 -139.03985352 770.99183594 -138.35205078 771.34179688 C-95.61170729 792.70699534 -46.80987461 802.37963119 0.625 804.3125 C1.46063477 804.34714355 2.29626953 804.38178711 3.15722656 804.41748047 C8.32518624 804.5974981 13.45909833 804.52666677 18.625 804.3125 C19.63336914 804.27141113 20.64173828 804.23032227 21.68066406 804.18798828 C46.8820895 803.04113656 72.22636989 799.88984155 96.625 793.3125 C97.38212312 789.294382 97.73733839 785.52424825 97.6875 781.4375 C97.67396484 779.98730469 97.67396484 779.98730469 97.66015625 778.5078125 C97.64855469 777.78335938 97.63695312 777.05890625 97.625 776.3125 C98.429375 776.085625 99.23375 775.85875 100.0625 775.625 C104.53785739 773.97618412 108.51221318 771.70705588 112.625 769.3125 C109.32097539 768.21115846 108.60325422 768.38700601 105.3984375 769.3515625 C104.54475586 769.59994873 103.69107422 769.84833496 102.81152344 770.10424805 C101.8837207 770.37922119 100.95591797 770.65419434 100 770.9375 C14.66356274 795.08040042 -76.5450415 782.81797331 -154.20654297 740.77978516 C-171.23098153 731.21794121 -187.55551136 720.03088467 -202.375 707.3125 C-203.36371094 706.50683594 -204.35242188 705.70117188 -205.37109375 704.87109375 C-213.21877349 698.41960526 -220.48983568 691.41108114 -227.6875 684.25 C-228.60635986 683.34032471 -229.52521973 682.43064941 -230.47192383 681.4934082 C-236.53229016 675.4056813 -242.02867724 669.0304856 -247.375 662.3125 C-248.37558494 661.1040132 -249.37902907 659.89788145 -250.38671875 658.6953125 C-307.09899019 590.0884102 -329.60558219 499.89663005 -321.375 412.3125 C-313.46398225 341.35067081 -282.24883957 274.96028128 -233.74804688 222.80322266 C-231.53090942 220.39606737 -229.36582103 217.9422587 -227.1875 215.5 C-223.79934893 211.77090291 -220.33996186 208.34806796 -216.484375 205.109375 C-213.98210617 202.97781266 -211.59372983 200.73932371 -209.1875 198.5 C-193.89235747 184.60673784 -176.26145401 172.60995543 -158.375 162.3125 C-157.58689941 161.85439941 -156.79879883 161.39629883 -155.98681641 160.92431641 C-78.03763959 116.00712476 14.0796162 106.58886381 100.625 129.3125 C101.48512695 129.53631348 102.34525391 129.76012695 103.23144531 129.99072266 C123.4658767 135.36010506 143.19322835 143.46023175 161.66894531 153.28369141 C163.82604378 154.4182412 166.00119656 155.51258792 168.1796875 156.60546875 C179.57708754 162.37970211 190.17067623 168.97692541 200.625 176.3125 C201.64078125 177.02277344 202.6565625 177.73304688 203.703125 178.46484375 C206.37553945 180.37538566 209.00697714 182.32811456 211.625 184.3125 C212.15512695 184.71259277 212.68525391 185.11268555 213.23144531 185.52490234 C221.63292946 191.89423263 229.4698496 198.68484691 237.13183594 205.92089844 C239.37935655 208.01554649 241.69276806 210.03408763 244 212.0625 C247.52464208 215.22506007 250.6921221 218.49587942 253.73828125 222.1171875 C255.99426427 224.74216153 258.37387561 227.23329682 260.75 229.75 C316.95809036 290.27576461 346.48116557 377.8127494 343.50048828 459.73461914 C341.15926335 508.38633429 330.61530762 555.63788 308.625 599.3125 C308.01906006 600.54444092 308.01906006 600.54444092 307.40087891 601.80126953 C297.60120071 621.67718126 285.46323734 640.03368582 271.625 657.3125 C270.83609375 658.31410156 270.0471875 659.31570313 269.234375 660.34765625 C260.57638656 671.17014179 250.95699355 681.06410611 241.1875 690.875 C240.41801025 691.6491626 239.64852051 692.4233252 238.85571289 693.22094727 C235.85247779 696.21562145 232.97195219 699.05139624 229.578125 701.60546875 C228.93359375 702.16878906 228.2890625 702.73210938 227.625 703.3125 C227.6886079 707.01304409 227.6886079 707.01304409 228.625 710.3125 C233.73475948 707.59454283 238.12567666 704.46142308 242.609375 700.80078125 C244.625 699.3125 244.625 699.3125 247.625 698.3125 C247.625 699.6325 247.625 700.9525 247.625 702.3125 C255.44934281 699.16518009 260.30548318 689.8537866 264.6875 683.0625 C268.92148881 676.8077438 273.9515953 672.02255379 279.5402832 666.97631836 C284.57129762 662.40400543 289.02482205 657.60424543 293.32958984 652.34936523 C296.05432863 649.04946541 298.85321829 646.13961625 302.06567383 643.29052734 C311.74227745 634.54354687 316.88624222 622.82424991 322.625 611.3125 C323.58441981 609.44129569 324.54404724 607.57019781 325.50390625 605.69921875 C336.55773986 583.75513892 345.05957619 560.24222999 350.625 536.3125 C350.88120117 535.21115723 351.13740234 534.10981445 351.40136719 532.97509766 C366.31873741 467.57439553 362.03484502 400.82490917 340.625 337.3125 C340.17350586 335.97276123 340.17350586 335.97276123 339.71289062 334.60595703 C327.81496461 300.03499651 309.17219341 267.01227723 286.625 238.3125 C285.92020508 237.41265381 285.92020508 237.41265381 285.20117188 236.49462891 C271.29422599 218.8178883 255.86008516 201.81790316 238.625 187.3125 C237.70847656 186.50683594 236.79195312 185.70117188 235.84765625 184.87109375 C227.86439497 177.89742819 219.44776167 171.71617019 210.70214844 165.73388672 C208.77671146 164.41631572 206.86063979 163.08610429 204.9453125 161.75390625 C179.12861987 143.98218545 151.0901396 130.7429487 121.625 120.3125 C120.72652344 119.99410156 119.82804687 119.67570312 118.90234375 119.34765625 C25.34689917 86.76092836 -82.62346734 100.25701007 -184.375 161.3125 Z M-286.375 178.3125 C-287.035 179.6325 -287.695 180.9525 -288.375 182.3125 C-287.385 181.6525 -286.395 180.9925 -285.375 180.3125 C-285.705 179.6525 -286.035 178.9925 -286.375 178.3125 Z M-292.375 185.3125 C-293.365 186.3025 -294.355 187.2925 -295.375 188.3125 C-295.045 188.9725 -294.715 189.6325 -294.375 190.3125 C-293.385 189.3225 -292.395 188.3325 -291.375 187.3125 C-291.705 186.6525 -292.035 185.9925 -292.375 185.3125 Z M-297.375 191.3125 C-298.365 192.3025 -299.355 193.2925 -300.375 194.3125 C-300.045 194.9725 -299.715 195.6325 -299.375 196.3125 C-298.385 195.3225 -297.395 194.3325 -296.375 193.3125 C-296.705 192.6525 -297.035 191.9925 -297.375 191.3125 Z M-301.375 196.3125 C-302.365 197.3025 -303.355 198.2925 -304.375 199.3125 C-304.045 199.9725 -303.715 200.6325 -303.375 201.3125 C-302.385 200.3225 -301.395 199.3325 -300.375 198.3125 C-300.705 197.6525 -301.035 196.9925 -301.375 196.3125 Z M-305.375 201.3125 C-306.035 202.6325 -306.695 203.9525 -307.375 205.3125 C-306.385 204.6525 -305.395 203.9925 -304.375 203.3125 C-304.705 202.6525 -305.035 201.9925 -305.375 201.3125 Z M-308.375 205.3125 C-309.035 206.6325 -309.695 207.9525 -310.375 209.3125 C-309.385 208.6525 -308.395 207.9925 -307.375 207.3125 C-307.705 206.6525 -308.035 205.9925 -308.375 205.3125 Z M-371.375 370.3125 C-370.375 373.3125 -370.375 373.3125 -370.375 373.3125 Z M-372.375 375.3125 C-381.34956878 431.00838644 -380.03373722 485.44506196 -366.375 540.3125 C-366.045 540.3125 -365.715 540.3125 -365.375 540.3125 C-366.12328894 530.85248022 -367.80628196 521.58068129 -369.47070312 512.24609375 C-370.15598864 508.27431884 -370.78950351 504.30003371 -371.375 500.3125 C-371.47496277 499.64243927 -371.57492554 498.97237854 -371.67791748 498.28201294 C-374.05840338 481.49739002 -373.68145884 464.50810331 -373.63574219 447.59643555 C-373.62437605 443.36102682 -373.63108437 439.12587045 -373.64264679 434.8904705 C-373.68240023 417.60826606 -373.44279795 400.54923233 -371.55847168 383.34854126 C-371.31661948 380.66463349 -371.30618197 378.00486897 -371.375 375.3125 C-371.705 375.3125 -372.035 375.3125 -372.375 375.3125 Z M-365.375 541.3125 C-364.375 544.3125 -364.375 544.3125 -364.375 544.3125 Z M-347.375 572.3125 C-346.375 574.3125 -346.375 574.3125 -346.375 574.3125 Z M-346.375 575.3125 C-345.375 577.3125 -345.375 577.3125 -345.375 577.3125 Z M-345.375 578.3125 C-344.375 581.3125 -344.375 581.3125 -344.375 581.3125 Z " fill="#48311B" transform="translate(467.375,98.6875)"/>
<path d="M0 0 C1.08661926 0.00182281 2.17323853 0.00364563 3.29278564 0.00552368 C62.60657037 0.17216898 122.38701747 12.53362373 176.11621094 38.12207031 C178.81078295 39.4006547 181.51787602 40.65005415 184.2265625 41.8984375 C217.54636339 57.3768543 248.54132478 77.63177386 276.625 101.3125 C277.15802734 101.76061035 277.69105469 102.2087207 278.24023438 102.67041016 C290.48583055 112.98561446 302.15486916 123.76320807 313.5 135.0625 C314.29688232 135.85470947 315.09376465 136.64691895 315.91479492 137.46313477 C320.69072458 142.25209014 325.22867576 147.1746597 329.625 152.3125 C330.57441532 153.3955014 331.52488413 154.47758045 332.4765625 155.55859375 C340.27703837 164.50104371 347.56228746 173.7787036 354.625 183.3125 C355.1303125 183.99151367 355.635625 184.67052734 356.15625 185.37011719 C398.03211814 241.99523316 424.68145761 311.14022516 434.875 380.5 C435.02614258 381.51779541 435.17728516 382.53559082 435.33300781 383.58422852 C436.96291953 395.43788109 437.72966319 407.38563517 438.625 419.3125 C439.8725708 419.30583817 441.1201416 419.29917633 442.40551758 419.29231262 C454.17591408 419.23143675 465.94627853 419.18649618 477.71679688 419.15706348 C483.76780775 419.14142306 489.8186913 419.12021414 495.86962891 419.08618164 C501.71163175 419.05353074 507.5535123 419.03563478 513.39559937 419.02786827 C515.62187627 419.02233509 517.84814665 419.01153014 520.07437134 418.99530983 C523.19816433 418.97345974 526.3214551 418.97053629 529.4453125 418.97192383 C530.81880608 418.95574509 530.81880608 418.95574509 532.220047 418.9392395 C540.45605835 418.97869604 546.92844555 420.98141578 553.0859375 426.6328125 C558.28123792 432.30281043 559.9674149 438.42927216 559.83203125 445.94921875 C559.17458033 453.45408301 555.34136402 459.49658978 549.625 464.3125 C543.59148675 468.22578399 538.43441192 468.87668768 531.35351562 468.76660156 C530.35748322 468.76718567 529.36145081 468.76776978 528.3352356 468.76837158 C525.06687685 468.76560107 521.79944799 468.73455726 518.53125 468.703125 C516.25582375 468.69565896 513.98039105 468.68996774 511.70495605 468.68597412 C505.73390764 468.67074654 499.76325221 468.63148911 493.7923584 468.5871582 C487.6923555 468.54614364 481.59228872 468.52794988 475.4921875 468.5078125 C463.53628626 468.4649924 451.58067589 468.39677565 439.625 468.3125 C439.65422924 468.97082132 439.68345848 469.62914265 439.71357346 470.3074131 C439.8471069 473.32291615 439.97971281 476.33845932 440.11230469 479.35400391 C440.15829803 480.38952896 440.20429138 481.42505402 440.25167847 482.49195862 C440.57611699 489.89139822 440.84820328 497.28003328 440.875 504.6875 C440.88112305 505.76475342 440.88724609 506.84200684 440.89355469 507.9519043 C440.85230722 515.22285513 440.19687602 522.10936255 438.34082031 529.15185547 C437.78734278 531.23565277 437.78734278 531.23565277 437.625 534.3125 C439.4093951 537.04310457 439.4093951 537.04310457 441.625 539.3125 C445.87341782 549.48691601 440.77076574 565.56259367 437.625 575.3125 C437.24045654 576.54516602 437.24045654 576.54516602 436.84814453 577.80273438 C427.0993668 608.76877677 411.47752778 638.83646277 390.8125 664 C388.27181838 667.03001402 388.27181838 667.03001402 389.0625 669.9375 C389.578125 670.72125 390.09375 671.505 390.625 672.3125 C393.31907393 676.7680838 394.45846377 680.51306123 394.2890625 685.6875 C393.1906053 690.02963672 390.33070975 692.47545852 387.2421875 695.59765625 C379.33108069 703.80395362 373.74940942 713.65982251 368.25 723.5625 C359.82397937 738.72909001 350.74652308 752.83155489 339.07763672 765.70849609 C337.65438615 767.28005176 336.24984737 768.86668669 334.84765625 770.45703125 C310.91040049 797.37733625 279.92632731 816.92100617 247.625 832.3125 C246.95871582 832.63041504 246.29243164 832.94833008 245.60595703 833.27587891 C226.59600053 842.24610257 206.70846784 849.16790871 186.6875 855.5 C185.44315186 855.89888428 184.19880371 856.29776855 182.91674805 856.70874023 C181.75957275 857.06653564 180.60239746 857.42433105 179.41015625 857.79296875 C177.87693726 858.27092896 177.87693726 858.27092896 176.31274414 858.75854492 C173.61259153 859.31505744 172.18420932 859.24183886 169.625 858.3125 C170.285 856.3325 170.945 854.3525 171.625 852.3125 C168.325 852.9725 165.025 853.6325 161.625 854.3125 C162.12 853.36375 162.615 852.415 163.125 851.4375 C164.76924369 848.58971834 164.76924369 848.58971834 164.625 846.3125 C159.01057332 845.93820489 154.52874626 847.05034596 149.17578125 848.75390625 C146.625 849.3125 146.625 849.3125 142.625 848.3125 C144.935 843.6925 147.245 839.0725 149.625 834.3125 C145.82742188 834.83650391 145.82742188 834.83650391 141.953125 835.37109375 C139.46087747 835.71275211 136.96848382 836.05332503 134.47607422 836.39379883 C132.76335391 836.62834538 131.05078412 836.86399405 129.33837891 837.10083008 C117.45190022 838.74381793 105.58169466 840.38377592 93.5625 840.5625 C92.49902344 840.58828125 91.43554688 840.6140625 90.33984375 840.640625 C87.625 840.3125 87.625 840.3125 85.80859375 838.95703125 C83.92288611 836.33695562 83.74302827 834.55827738 83.625 831.3125 C84.42449417 827.90573823 85.47007308 824.61415549 86.625 821.3125 C85.56667969 821.56644531 84.50835938 821.82039062 83.41796875 822.08203125 C69.27663229 825.33577604 55.06288233 826.98916336 40.625 828.3125 C39.43076416 828.42271484 39.43076416 828.42271484 38.21240234 828.53515625 C15.0796031 830.55089959 -8.30513747 829.5475054 -31.375 827.3125 C-32.30989258 827.22661621 -33.24478516 827.14073242 -34.20800781 827.05224609 C-72.95132698 823.34010202 -112.25319907 812.0175443 -147.375 795.3125 C-148.07882812 794.97798828 -148.78265625 794.64347656 -149.5078125 794.29882812 C-153.51434167 792.37434361 -157.47869575 790.37801105 -161.42138672 788.32617188 C-163.43218561 787.28282808 -165.45192356 786.2583273 -167.47265625 785.234375 C-188.30021592 774.57198391 -207.97313888 761.44199383 -225.89453125 746.39453125 C-227.53906711 745.01415706 -229.20326047 743.65684747 -230.88671875 742.32421875 C-245.85658077 730.44231033 -259.96543862 716.83898656 -272.375 702.3125 C-273.26738203 701.29482945 -274.16068697 700.27796778 -275.0546875 699.26171875 C-304.64409559 665.45504856 -327.15718713 626.11509599 -343.375 584.3125 C-343.07730713 585.30056641 -342.77961426 586.28863281 -342.47290039 587.30664062 C-341.36129393 591.00231509 -340.25816519 594.70047644 -339.1574707 598.39941406 C-338.68156018 599.99449702 -338.20340839 601.58891316 -337.72290039 603.18261719 C-337.02928836 605.48457362 -336.34399658 607.78887442 -335.66015625 610.09375 C-335.44657974 610.79616821 -335.23300323 611.49858643 -335.01295471 612.22229004 C-333.63176179 616.91594813 -332.87383145 621.44352318 -332.375 626.3125 C-338.02950445 624.42766518 -340.24003016 617.57736936 -342.79589844 612.47705078 C-344.15035861 609.62486081 -345.45860665 606.75625073 -346.75 603.875 C-347.19988281 602.89595703 -347.64976562 601.91691406 -348.11328125 600.90820312 C-351.375 593.69573993 -351.375 593.69573993 -351.375 590.3125 C-352.035 590.3125 -352.695 590.3125 -353.375 590.3125 C-366.86149448 556.35740219 -376.95007982 521.65516822 -381.375 485.3125 C-381.46113556 484.63465454 -381.54727112 483.95680908 -381.63601685 483.25842285 C-383.50186609 468.27970248 -383.734359 453.39326626 -383.6875 438.3125 C-383.68567719 437.09605804 -383.68385437 435.87961609 -383.68197632 434.62631226 C-383.63743393 416.98070624 -383.20675259 399.7573223 -380.375 382.3125 C-380.12556641 380.65468506 -380.12556641 380.65468506 -379.87109375 378.96337891 C-370.80518074 319.22069102 -347.81564381 259.76008406 -311.375 211.3125 C-320.52997348 222.69598677 -328.03993178 234.70038669 -335.375 247.3125 C-335.80570801 248.04855469 -336.23641602 248.78460938 -336.68017578 249.54296875 C-349.05270659 270.80073506 -359.39227856 293.05048155 -367.375 316.3125 C-367.65923828 317.13621094 -367.94347656 317.95992188 -368.23632812 318.80859375 C-381.38126102 357.38817994 -387.59532017 398.05643771 -387.625 438.75 C-387.62567474 439.59399353 -387.62634949 440.43798706 -387.62704468 441.30755615 C-387.5548861 498.80917927 -374.12019681 555.07306701 -350.375 607.3125 C-349.91593262 608.32554199 -349.45686523 609.33858398 -348.98388672 610.38232422 C-340.38100629 629.21223659 -330.16950318 646.29734038 -318.625 663.44921875 C-313.70531045 670.7768043 -309.13694136 678.29433679 -304.68359375 685.9140625 C-297.85484103 697.54139822 -290.52074615 708.56606537 -282.375 719.3125 C-281.89675781 719.94381836 -281.41851562 720.57513672 -280.92578125 721.22558594 C-266.70529253 739.87752947 -251.14703158 757.96658457 -233.375 773.3125 C-231.43255304 775.05700739 -229.49516774 776.8071648 -227.5625 778.5625 C-226.68980469 779.35140625 -225.81710938 780.1403125 -224.91796875 780.953125 C-222.375 783.3125 -222.375 783.3125 -220.06640625 785.78515625 C-216.70192941 788.94454161 -213.08466423 791.15927205 -209.125 793.5 C-208.32852051 793.97703369 -207.53204102 794.45406738 -206.71142578 794.94555664 C-205.06309077 795.93106997 -203.41285182 796.91340571 -201.76074219 797.89257812 C-199.58299797 799.18870587 -197.41863681 800.50405438 -195.2578125 801.828125 C-118.32342995 848.59640353 -29.73980527 863.66900565 59.01379395 863.38116455 C62.59512718 863.37070735 66.17646822 863.36632035 69.7578125 863.36132812 C76.71355978 863.35078483 83.66927767 863.33385053 90.625 863.3125 C90.625 863.9725 90.625 864.6325 90.625 865.3125 C74.05156057 874.43173406 60.13925742 880.45595417 41.00390625 880.48046875 C39.99520477 880.48474884 38.9865033 880.48902893 37.94723511 880.49343872 C34.69394459 880.50340463 31.44080286 880.50349622 28.1875 880.5 C27.07698273 880.49906342 25.96646545 880.49812683 24.82229614 880.49716187 C-61.81301846 880.33812611 -149.16376365 854.2261495 -220.375 804.3125 C-220.95894531 803.90580078 -221.54289063 803.49910156 -222.14453125 803.08007812 C-238.19366088 791.87365972 -253.39849807 779.77042277 -267.86328125 766.578125 C-269.24825166 765.32885154 -270.63976655 764.08629803 -272.05786133 762.87475586 C-277.62039231 758.10778218 -282.82734987 753.01334493 -287.9934082 747.82446289 C-289.43525221 746.37725615 -290.88237116 744.93547974 -292.33007812 743.49414062 C-297.55715735 738.27153832 -302.61182487 732.96283949 -307.375 727.3125 C-308.17780396 726.3697522 -308.17780396 726.3697522 -308.99682617 725.40795898 C-365.17959175 659.05598677 -399.42672914 579.08428138 -411.375 493.3125 C-411.55434082 492.03632812 -411.73368164 490.76015625 -411.91845703 489.4453125 C-416.75367919 453.10672133 -416.57109863 414.58380311 -411.375 378.3125 C-411.20339355 377.09127441 -411.03178711 375.87004883 -410.85498047 374.61181641 C-402.22873903 314.93734365 -381.7676729 256.88053936 -350.375 205.3125 C-349.82875977 204.4148291 -349.28251953 203.5171582 -348.71972656 202.59228516 C-337.35207985 184.05582301 -324.64607557 166.75712166 -310.78125 150.02294922 C-309.5455591 148.51995435 -308.33332092 146.99774186 -307.125 145.47265625 C-297.5853101 133.4577059 -286.68507952 122.55131645 -275.875 111.6875 C-275.24134521 111.04917236 -274.60769043 110.41084473 -273.95483398 109.75317383 C-269.59196717 105.40518758 -265.04244873 101.32944977 -260.375 97.3125 C-259.28047387 96.35114333 -258.1866806 95.38895142 -257.09375 94.42578125 C-201.64258923 45.96799845 -132.20232513 15.04634453 -59.5625 4.0625 C-58.06396484 3.83578613 -58.06396484 3.83578613 -56.53515625 3.60449219 C-37.71146934 0.93860558 -18.99799987 -0.06664876 0 0 Z M-89.55664062 71.69262695 C-98.09940222 74.97781716 -106.7689184 77.57261671 -115.55526733 80.10668945 C-147.78714999 88.5473482 -147.78714999 88.5473482 -174.375 107.3125 C-177.81067642 110.98031672 -181.19364991 113.66301573 -185.5 116.25 C-186.068396 116.59426025 -186.63679199 116.93852051 -187.22241211 117.29321289 C-190.73469302 119.40136532 -194.30788397 121.3535388 -197.9375 123.25 C-207.29530744 128.28254179 -215.36476372 135.06441249 -223.12109375 142.26953125 C-224.68208527 143.68443344 -226.29824435 145.03990464 -227.953125 146.34375 C-230.13459608 148.11707488 -231.87930783 149.85978247 -233.6875 152 C-235.49205599 154.11822345 -237.29314237 156.22373231 -239.1796875 158.26953125 C-249.89850499 169.90011537 -258.77967671 183.07722343 -267.375 196.3125 C-267.045 196.9725 -266.715 197.6325 -266.375 198.3125 C-265.3708606 197.29265015 -265.3708606 197.29265015 -264.34643555 196.25219727 C-261.81145127 193.68043875 -259.26938153 191.11577683 -256.7253418 188.55297852 C-255.63459309 187.45230081 -254.5456601 186.34982017 -253.45874023 185.24536133 C-246.42396863 178.10011294 -239.24655093 171.54015345 -231.375 165.3125 C-230.34715353 164.44946467 -229.32371528 163.58109233 -228.30859375 162.703125 C-194.97714672 134.11840986 -154.76214109 112.58414296 -113.375 98.3125 C-112.27188477 97.93206543 -111.16876953 97.55163086 -110.03222656 97.15966797 C-85.15874028 88.72335743 -59.51149036 82.81495798 -33.35424805 80.19775391 C-32.45359619 80.1054248 -31.55294434 80.0130957 -30.625 79.91796875 C-29.84640625 79.84731201 -29.0678125 79.77665527 -28.265625 79.70385742 C-26.14091741 79.44448129 -26.14091741 79.44448129 -24.375 77.3125 C-44.63931285 71.27529366 -44.63931285 71.27529366 -65.375 67.3125 C-66.79232422 67.08820313 -66.79232422 67.08820313 -68.23828125 66.859375 C-76.00635272 66.20013273 -82.45511425 68.92972884 -89.55664062 71.69262695 Z M-4.95703125 70.5546875 C-7.51894191 73.59580762 -7.51894191 73.59580762 -8.375 77.3125 C-7.2597998 77.32708252 -6.14459961 77.34166504 -4.99560547 77.35668945 C54.04823118 78.18733751 111.50779509 85.43942086 165.41650391 111.26416016 C167.56120557 112.28221775 169.71933506 113.26178605 171.88671875 114.23046875 C205.37091061 129.31709624 241.24425368 151.79770105 266.27734375 179.0546875 C267.56144515 180.53993942 267.56144515 180.53993942 269.625 180.3125 C269.625 180.9725 269.625 181.6325 269.625 182.3125 C271.16205089 183.85490841 271.16205089 183.85490841 273.16015625 185.453125 C277.42172676 189.07991372 281.26184006 192.96084217 285.0625 197.0625 C285.71718262 197.76640869 286.37186523 198.47031738 287.04638672 199.19555664 C292.14863104 204.7201471 297.00256207 210.37839592 301.625 216.3125 C302.32326904 217.19397705 302.32326904 217.19397705 303.03564453 218.09326172 C348.18981275 275.14450903 374.4747684 341.67402819 383.23950195 413.75415039 C383.56717102 416.42458589 383.56717102 416.42458589 384.625 419.3125 C385.285 419.3125 385.945 419.3125 386.625 419.3125 C387.48087336 395.37182031 384.76642806 371.30727091 374.9375 349.25 C372.47343779 343.13943086 372.04281788 337.31603731 371.625 330.8125 C369.13297977 292.67955308 350.18370444 259.14986008 329.33203125 227.9921875 C327.61729114 225.42596317 325.91768004 222.85014806 324.21875 220.2734375 C318.51856598 211.68933609 312.79853465 203.73466444 305.625 196.3125 C304.42832349 194.92452584 303.23940802 193.52977559 302.0625 192.125 C299.26070254 188.91566836 296.27449689 186.14892841 293.0234375 183.40234375 C291.16671213 181.78451301 289.37885697 180.14322355 287.6015625 178.44140625 C281.34126965 172.45875812 274.94946001 166.819017 268.0625 161.5625 C267.41547119 161.06862793 266.76844238 160.57475586 266.10180664 160.06591797 C263.95975338 158.45693577 261.79734146 156.88037735 259.625 155.3125 C258.16199463 154.25107788 258.16199463 154.25107788 256.66943359 153.16821289 C249.19444255 147.85650203 241.54940025 143.43375735 233.375 139.25 C218.11784416 131.29781517 203.5861658 122.2873511 189.47265625 112.43359375 C161.37812626 92.84204302 129.01224993 85.32600323 95.71484375 80.29342651 C85.2821369 78.68445692 74.99879556 76.2259721 64.890625 73.19140625 C58.12081714 71.36938859 51.80458822 71.97798618 45.00756836 73.49316406 C31.7974919 76.41695576 19.78826023 74.22566795 6.88867188 70.63452148 C0.73906061 68.65188668 0.73906061 68.65188668 -4.95703125 70.5546875 Z M-184.375 161.3125 C-185.10090332 161.80782227 -185.82680664 162.30314453 -186.57470703 162.81347656 C-195.50436982 168.94034169 -204.1183491 175.29434673 -212.375 182.3125 C-213.3753125 183.14007813 -214.375625 183.96765625 -215.40625 184.8203125 C-225.94689655 193.56598218 -236.76897563 202.58348849 -245.52734375 213.15625 C-247.05929451 214.94406569 -248.62617708 216.64488881 -250.25390625 218.34375 C-257.83748661 226.27333621 -264.59454365 234.5271572 -271.0078125 243.42773438 C-272.23415652 245.1183372 -273.49024722 246.78726771 -274.75 248.453125 C-329.4831895 322.04707575 -349.48195511 415.91289295 -336.625 505.9375 C-327.95108371 562.59722971 -305.37008069 617.78812769 -270.375 663.3125 C-269.88660645 663.95493652 -269.39821289 664.59737305 -268.89501953 665.25927734 C-263.66291566 672.12937947 -258.25173258 678.74899567 -252.3984375 685.10546875 C-250.63051137 687.03380517 -248.93653954 689.00097978 -247.25 691 C-243.5272878 695.2709501 -239.54624758 699.28699111 -235.5625 703.3125 C-234.89138184 703.99658936 -234.22026367 704.68067871 -233.52880859 705.38549805 C-232.89410645 706.02140869 -232.2594043 706.65731934 -231.60546875 707.3125 C-231.03207764 707.89 -230.45868652 708.4675 -229.86791992 709.0625 C-228.44394512 710.52649031 -228.44394512 710.52649031 -226.375 710.3125 C-226.375 710.9725 -226.375 711.6325 -226.375 712.3125 C-223.95986124 714.89447401 -221.09271793 717.05915404 -218.375 719.3125 C-217.52180176 720.0240625 -217.52180176 720.0240625 -216.65136719 720.75 C-198.12024876 736.16850727 -178.48571646 749.74386669 -157.29394531 761.26708984 C-155.43747645 762.27846385 -153.5895335 763.30411301 -151.7421875 764.33203125 C-147.9909304 766.40135682 -144.1975685 768.37839028 -140.375 770.3125 C-139.70742676 770.65216797 -139.03985352 770.99183594 -138.35205078 771.34179688 C-95.61170729 792.70699534 -46.80987461 802.37963119 0.625 804.3125 C1.46063477 804.34714355 2.29626953 804.38178711 3.15722656 804.41748047 C8.32518624 804.5974981 13.45909833 804.52666677 18.625 804.3125 C19.63336914 804.27141113 20.64173828 804.23032227 21.68066406 804.18798828 C46.8820895 803.04113656 72.22636989 799.88984155 96.625 793.3125 C97.38212312 789.294382 97.73733839 785.52424825 97.6875 781.4375 C97.67396484 779.98730469 97.67396484 779.98730469 97.66015625 778.5078125 C97.64855469 777.78335938 97.63695312 777.05890625 97.625 776.3125 C98.40875 776.10625 99.1925 775.9 100 775.6875 C103.95123649 774.18875512 107.22134339 772.21567726 110.76953125 769.9453125 C116.87085588 766.45645656 123.44623204 763.95802968 129.96801758 761.37133789 C154.18062776 751.72233574 177.20857093 740.20471889 198.625 725.3125 C199.16688965 724.93657715 199.7087793 724.5606543 200.26708984 724.17333984 C209.31289221 717.87556408 218.01687328 711.19376847 226.625 704.3125 C227.285 706.2925 227.945 708.2725 228.625 710.3125 C233.73475948 707.59454283 238.12567666 704.46142308 242.609375 700.80078125 C244.625 699.3125 244.625 699.3125 247.625 698.3125 C247.625 699.6325 247.625 700.9525 247.625 702.3125 C255.44934281 699.16518009 260.30548318 689.8537866 264.6875 683.0625 C268.92148881 676.8077438 273.9515953 672.02255379 279.5402832 666.97631836 C284.57129762 662.40400543 289.02482205 657.60424543 293.32958984 652.34936523 C296.05432863 649.04946541 298.85321829 646.13961625 302.06567383 643.29052734 C311.74227745 634.54354687 316.88624222 622.82424991 322.625 611.3125 C323.58441981 609.44129569 324.54404724 607.57019781 325.50390625 605.69921875 C336.55773986 583.75513892 345.05957619 560.24222999 350.625 536.3125 C350.88120117 535.21115723 351.13740234 534.10981445 351.40136719 532.97509766 C366.31873741 467.57439553 362.03484502 400.82490917 340.625 337.3125 C340.17350586 335.97276123 340.17350586 335.97276123 339.71289062 334.60595703 C327.81496461 300.03499651 309.17219341 267.01227723 286.625 238.3125 C285.92020508 237.41265381 285.92020508 237.41265381 285.20117188 236.49462891 C271.29422599 218.8178883 255.86008516 201.81790316 238.625 187.3125 C237.70847656 186.50683594 236.79195312 185.70117188 235.84765625 184.87109375 C227.86439497 177.89742819 219.44776167 171.71617019 210.70214844 165.73388672 C208.77671146 164.41631572 206.86063979 163.08610429 204.9453125 161.75390625 C179.12861987 143.98218545 151.0901396 130.7429487 121.625 120.3125 C120.72652344 119.99410156 119.82804687 119.67570312 118.90234375 119.34765625 C25.34689917 86.76092836 -82.62346734 100.25701007 -184.375 161.3125 Z M-286.375 178.3125 C-287.035 179.6325 -287.695 180.9525 -288.375 182.3125 C-287.385 181.6525 -286.395 180.9925 -285.375 180.3125 C-285.705 179.6525 -286.035 178.9925 -286.375 178.3125 Z M-292.375 185.3125 C-293.365 186.3025 -294.355 187.2925 -295.375 188.3125 C-295.045 188.9725 -294.715 189.6325 -294.375 190.3125 C-293.385 189.3225 -292.395 188.3325 -291.375 187.3125 C-291.705 186.6525 -292.035 185.9925 -292.375 185.3125 Z M-297.375 191.3125 C-298.365 192.3025 -299.355 193.2925 -300.375 194.3125 C-300.045 194.9725 -299.715 195.6325 -299.375 196.3125 C-298.385 195.3225 -297.395 194.3325 -296.375 193.3125 C-296.705 192.6525 -297.035 191.9925 -297.375 191.3125 Z M-301.375 196.3125 C-302.365 197.3025 -303.355 198.2925 -304.375 199.3125 C-304.045 199.9725 -303.715 200.6325 -303.375 201.3125 C-302.385 200.3225 -301.395 199.3325 -300.375 198.3125 C-300.705 197.6525 -301.035 196.9925 -301.375 196.3125 Z M-305.375 201.3125 C-306.035 202.6325 -306.695 203.9525 -307.375 205.3125 C-306.385 204.6525 -305.395 203.9925 -304.375 203.3125 C-304.705 202.6525 -305.035 201.9925 -305.375 201.3125 Z M-308.375 205.3125 C-309.035 206.6325 -309.695 207.9525 -310.375 209.3125 C-309.385 208.6525 -308.395 207.9925 -307.375 207.3125 C-307.705 206.6525 -308.035 205.9925 -308.375 205.3125 Z M-371.375 370.3125 C-370.375 373.3125 -370.375 373.3125 -370.375 373.3125 Z M-372.375 375.3125 C-381.34956878 431.00838644 -380.03373722 485.44506196 -366.375 540.3125 C-366.045 540.3125 -365.715 540.3125 -365.375 540.3125 C-366.12328894 530.85248022 -367.80628196 521.58068129 -369.47070312 512.24609375 C-370.15598864 508.27431884 -370.78950351 504.30003371 -371.375 500.3125 C-371.47496277 499.64243927 -371.57492554 498.97237854 -371.67791748 498.28201294 C-374.05840338 481.49739002 -373.68145884 464.50810331 -373.63574219 447.59643555 C-373.62437605 443.36102682 -373.63108437 439.12587045 -373.64264679 434.8904705 C-373.68240023 417.60826606 -373.44279795 400.54923233 -371.55847168 383.34854126 C-371.31661948 380.66463349 -371.30618197 378.00486897 -371.375 375.3125 C-371.705 375.3125 -372.035 375.3125 -372.375 375.3125 Z M-365.375 541.3125 C-364.375 544.3125 -364.375 544.3125 -364.375 544.3125 Z M-347.375 572.3125 C-346.375 574.3125 -346.375 574.3125 -346.375 574.3125 Z M-346.375 575.3125 C-345.375 577.3125 -345.375 577.3125 -345.375 577.3125 Z M-345.375 578.3125 C-344.375 581.3125 -344.375 581.3125 -344.375 581.3125 Z " fill="#886341" transform="translate(467.375,98.6875)"/>
<path d="M0 0 C1.08661926 0.00182281 2.17323853 0.00364563 3.29278564 0.00552368 C62.60657037 0.17216898 122.38701747 12.53362373 176.11621094 38.12207031 C178.81078295 39.4006547 181.51787602 40.65005415 184.2265625 41.8984375 C217.54636339 57.3768543 248.54132478 77.63177386 276.625 101.3125 C277.15802734 101.76061035 277.69105469 102.2087207 278.24023438 102.67041016 C290.48583055 112.98561446 302.15486916 123.76320807 313.5 135.0625 C314.29688232 135.85470947 315.09376465 136.64691895 315.91479492 137.46313477 C320.69072458 142.25209014 325.22867576 147.1746597 329.625 152.3125 C330.57441532 153.3955014 331.52488413 154.47758045 332.4765625 155.55859375 C340.27703837 164.50104371 347.56228746 173.7787036 354.625 183.3125 C355.1303125 183.99151367 355.635625 184.67052734 356.15625 185.37011719 C398.03211814 241.99523316 424.68145761 311.14022516 434.875 380.5 C435.02614258 381.51779541 435.17728516 382.53559082 435.33300781 383.58422852 C436.96755132 395.47156608 437.66441756 407.30521946 438.625 419.3125 C421.465 419.3125 404.305 419.3125 386.625 419.3125 C386.295 412.0525 385.965 404.7925 385.625 397.3125 C385.13271033 392.97600721 384.61702874 388.78141424 383.875 384.5 C383.61384399 382.93910645 383.61384399 382.93910645 383.34741211 381.34667969 C381.39060964 370.18316898 378.55717139 359.61708608 373.9375 349.25 C371.47343779 343.13943086 371.04281788 337.31603731 370.625 330.8125 C368.13297977 292.67955308 349.18370444 259.14986008 328.33203125 227.9921875 C326.61729114 225.42596317 324.91768004 222.85014806 323.21875 220.2734375 C317.51810119 211.68884532 311.79561026 203.73834029 304.625 196.3125 C303.59307721 195.09262839 302.57000452 193.86511533 301.5625 192.625 C298.96478556 189.57673346 296.11135963 187.02282914 293.05859375 184.4375 C291.18993219 182.80579552 289.38802189 181.1518098 287.59765625 179.4375 C281.33857654 173.45629592 274.94796837 167.8178785 268.0625 162.5625 C267.09195679 161.82169189 267.09195679 161.82169189 266.10180664 161.06591797 C263.95975338 159.45693577 261.79734146 157.88037735 259.625 156.3125 C258.16199463 155.25107788 258.16199463 155.25107788 256.66943359 154.16821289 C249.19444255 148.85650203 241.54940025 144.43375735 233.375 140.25 C218.11784416 132.29781517 203.5861658 123.2873511 189.47265625 113.43359375 C161.37812626 93.84204302 129.01224993 86.32600323 95.71484375 81.29342651 C85.2821369 79.68445692 74.99879556 77.2259721 64.890625 74.19140625 C58.12081714 72.36938859 51.80458822 72.97798618 45.00756836 74.49316406 C31.7974919 77.41695576 19.78826023 75.22566795 6.88867188 71.63452148 C1.81961219 70.22116463 1.81961219 70.22116463 -3.375 70.3125 C-4.97195854 71.77147994 -4.97195854 71.77147994 -6.0625 73.75 C-8.22565886 77.23782943 -8.22565886 77.23782943 -10.375 78.3125 C-21.97289041 79.98838564 -32.30277982 76.31495531 -43.28515625 73.0703125 C-50.59892755 70.91860438 -57.8139296 69.32180284 -65.375 68.3125 C-66.31988281 68.16296875 -67.26476562 68.0134375 -68.23828125 67.859375 C-76.00635272 67.20013273 -82.45511425 69.92972884 -89.55664062 72.69262695 C-98.09940222 75.97781716 -106.7689184 78.57261671 -115.55526733 81.10668945 C-129.47977501 85.12678724 -143.16701718 89.26816888 -156.375 95.3125 C-157.4578125 95.786875 -158.540625 96.26125 -159.65625 96.75 C-164.91788315 99.29408636 -168.23616018 102.08980368 -172 106.5625 C-178.2015342 113.83054009 -186.05893649 117.82283371 -194.375 122.3125 C-206.48330879 128.9525403 -217.52713235 136.75796531 -226.921875 146.94921875 C-228.375 148.3125 -228.375 148.3125 -230.375 148.3125 C-230.63667969 148.90675781 -230.89835938 149.50101563 -231.16796875 150.11328125 C-232.44847962 152.44638034 -233.71878094 153.72520188 -235.6875 155.5 C-249.57776219 169.08939009 -259.98315209 186.60810793 -270.625 202.75 C-273.40304603 206.92889052 -276.27456603 211.02279452 -279.25 215.0625 C-279.98992187 216.06796875 -280.72984375 217.0734375 -281.4921875 218.109375 C-282.11351562 218.83640625 -282.73484375 219.5634375 -283.375 220.3125 C-284.035 220.3125 -284.695 220.3125 -285.375 220.3125 C-285.65029541 220.89555908 -285.92559082 221.47861816 -286.20922852 222.0793457 C-287.33688189 224.23948087 -288.57616909 226.08900905 -290.02734375 228.04296875 C-290.55094482 228.75461182 -291.0745459 229.46625488 -291.61401367 230.19946289 C-292.17451416 230.95864014 -292.73501465 231.71781738 -293.3125 232.5 C-311.27552684 256.81221379 -311.27552684 256.81221379 -324.3828125 283.8515625 C-325.66238641 287.02530882 -327.28539456 289.94177353 -328.9375 292.9375 C-331.16186272 296.98093902 -333.09993073 300.85529378 -334.5859375 305.21484375 C-335.57982097 307.85699931 -336.8251958 310.33753389 -338.0625 312.875 C-346.36499815 330.63944742 -352.33930572 350.00561005 -355.56640625 369.328125 C-356.10894336 372.3056919 -356.91155893 375.11366894 -357.83203125 377.99609375 C-359.67153467 383.95079832 -360.59629515 389.96896254 -361.5 396.125 C-361.66886719 397.21103516 -361.83773437 398.29707031 -362.01171875 399.41601562 C-366.92854829 432.03356592 -365.67534983 466.30964934 -362.125 499 C-362.02257996 499.9666156 -361.92015991 500.9332312 -361.81463623 501.92913818 C-360.68264087 512.36686375 -359.08966663 522.43512963 -356.35009766 532.57177734 C-355.38592898 536.27057366 -354.62502315 539.95988155 -353.9140625 543.71484375 C-352.26016155 552.21696312 -350.03699287 560.52626706 -347.75 568.875 C-347.31191333 570.48982286 -346.87384394 572.10465041 -346.43579102 573.71948242 C-343.22684817 585.48662916 -339.79915455 597.1806163 -336.15576172 608.82055664 C-334.34369102 614.68384633 -332.86470675 620.1873986 -332.375 626.3125 C-338.02950445 624.42766518 -340.24003016 617.57736936 -342.79589844 612.47705078 C-344.15035861 609.62486081 -345.45860665 606.75625073 -346.75 603.875 C-347.19988281 602.89595703 -347.64976562 601.91691406 -348.11328125 600.90820312 C-351.375 593.69573993 -351.375 593.69573993 -351.375 590.3125 C-352.035 590.3125 -352.695 590.3125 -353.375 590.3125 C-366.86149448 556.35740219 -376.95007982 521.65516822 -381.375 485.3125 C-381.46113556 484.63465454 -381.54727112 483.95680908 -381.63601685 483.25842285 C-383.50186609 468.27970248 -383.734359 453.39326626 -383.6875 438.3125 C-383.68567719 437.09605804 -383.68385437 435.87961609 -383.68197632 434.62631226 C-383.63743393 416.98070624 -383.20675259 399.7573223 -380.375 382.3125 C-380.12556641 380.65468506 -380.12556641 380.65468506 -379.87109375 378.96337891 C-370.80518074 319.22069102 -347.81564381 259.76008406 -311.375 211.3125 C-320.52997348 222.69598677 -328.03993178 234.70038669 -335.375 247.3125 C-335.80570801 248.04855469 -336.23641602 248.78460938 -336.68017578 249.54296875 C-349.05270659 270.80073506 -359.39227856 293.05048155 -367.375 316.3125 C-367.65923828 317.13621094 -367.94347656 317.95992188 -368.23632812 318.80859375 C-381.38126102 357.38817994 -387.59532017 398.05643771 -387.625 438.75 C-387.62567474 439.59399353 -387.62634949 440.43798706 -387.62704468 441.30755615 C-387.5548861 498.80917927 -374.12019681 555.07306701 -350.375 607.3125 C-349.91593262 608.32554199 -349.45686523 609.33858398 -348.98388672 610.38232422 C-340.38100629 629.21223659 -330.16950318 646.29734038 -318.625 663.44921875 C-313.70531045 670.7768043 -309.13694136 678.29433679 -304.68359375 685.9140625 C-297.85484103 697.54139822 -290.52074615 708.56606537 -282.375 719.3125 C-281.89675781 719.94381836 -281.41851562 720.57513672 -280.92578125 721.22558594 C-266.70529253 739.87752947 -251.14703158 757.96658457 -233.375 773.3125 C-231.43255304 775.05700739 -229.49516774 776.8071648 -227.5625 778.5625 C-226.68980469 779.35140625 -225.81710938 780.1403125 -224.91796875 780.953125 C-222.375 783.3125 -222.375 783.3125 -220.06640625 785.78515625 C-216.70192941 788.94454161 -213.08466423 791.15927205 -209.125 793.5 C-208.32852051 793.97703369 -207.53204102 794.45406738 -206.71142578 794.94555664 C-205.06309077 795.93106997 -203.41285182 796.91340571 -201.76074219 797.89257812 C-199.58299797 799.18870587 -197.41863681 800.50405438 -195.2578125 801.828125 C-118.32342995 848.59640353 -29.73980527 863.66900565 59.01379395 863.38116455 C62.59512718 863.37070735 66.17646822 863.36632035 69.7578125 863.36132812 C76.71355978 863.35078483 83.66927767 863.33385053 90.625 863.3125 C90.625 863.9725 90.625 864.6325 90.625 865.3125 C74.05156057 874.43173406 60.13925742 880.45595417 41.00390625 880.48046875 C39.99520477 880.48474884 38.9865033 880.48902893 37.94723511 880.49343872 C34.69394459 880.50340463 31.44080286 880.50349622 28.1875 880.5 C27.07698273 880.49906342 25.96646545 880.49812683 24.82229614 880.49716187 C-61.81301846 880.33812611 -149.16376365 854.2261495 -220.375 804.3125 C-220.95894531 803.90580078 -221.54289063 803.49910156 -222.14453125 803.08007812 C-238.19366088 791.87365972 -253.39849807 779.77042277 -267.86328125 766.578125 C-269.24825166 765.32885154 -270.63976655 764.08629803 -272.05786133 762.87475586 C-277.62039231 758.10778218 -282.82734987 753.01334493 -287.9934082 747.82446289 C-289.43525221 746.37725615 -290.88237116 744.93547974 -292.33007812 743.49414062 C-297.55715735 738.27153832 -302.61182487 732.96283949 -307.375 727.3125 C-308.17780396 726.3697522 -308.17780396 726.3697522 -308.99682617 725.40795898 C-365.17959175 659.05598677 -399.42672914 579.08428138 -411.375 493.3125 C-411.55434082 492.03632812 -411.73368164 490.76015625 -411.91845703 489.4453125 C-416.75367919 453.10672133 -416.57109863 414.58380311 -411.375 378.3125 C-411.20339355 377.09127441 -411.03178711 375.87004883 -410.85498047 374.61181641 C-402.22873903 314.93734365 -381.7676729 256.88053936 -350.375 205.3125 C-349.82875977 204.4148291 -349.28251953 203.5171582 -348.71972656 202.59228516 C-337.35207985 184.05582301 -324.64607557 166.75712166 -310.78125 150.02294922 C-309.5455591 148.51995435 -308.33332092 146.99774186 -307.125 145.47265625 C-297.5853101 133.4577059 -286.68507952 122.55131645 -275.875 111.6875 C-275.24134521 111.04917236 -274.60769043 110.41084473 -273.95483398 109.75317383 C-269.59196717 105.40518758 -265.04244873 101.32944977 -260.375 97.3125 C-259.28047387 96.35114333 -258.1866806 95.38895142 -257.09375 94.42578125 C-201.64258923 45.96799845 -132.20232513 15.04634453 -59.5625 4.0625 C-58.06396484 3.83578613 -58.06396484 3.83578613 -56.53515625 3.60449219 C-37.71146934 0.93860558 -18.99799987 -0.06664876 0 0 Z M-286.375 178.3125 C-287.035 179.6325 -287.695 180.9525 -288.375 182.3125 C-287.385 181.6525 -286.395 180.9925 -285.375 180.3125 C-285.705 179.6525 -286.035 178.9925 -286.375 178.3125 Z M-292.375 185.3125 C-293.365 186.3025 -294.355 187.2925 -295.375 188.3125 C-295.045 188.9725 -294.715 189.6325 -294.375 190.3125 C-293.385 189.3225 -292.395 188.3325 -291.375 187.3125 C-291.705 186.6525 -292.035 185.9925 -292.375 185.3125 Z M-297.375 191.3125 C-298.365 192.3025 -299.355 193.2925 -300.375 194.3125 C-300.045 194.9725 -299.715 195.6325 -299.375 196.3125 C-298.385 195.3225 -297.395 194.3325 -296.375 193.3125 C-296.705 192.6525 -297.035 191.9925 -297.375 191.3125 Z M-301.375 196.3125 C-302.365 197.3025 -303.355 198.2925 -304.375 199.3125 C-304.045 199.9725 -303.715 200.6325 -303.375 201.3125 C-302.385 200.3225 -301.395 199.3325 -300.375 198.3125 C-300.705 197.6525 -301.035 196.9925 -301.375 196.3125 Z M-305.375 201.3125 C-306.035 202.6325 -306.695 203.9525 -307.375 205.3125 C-306.385 204.6525 -305.395 203.9925 -304.375 203.3125 C-304.705 202.6525 -305.035 201.9925 -305.375 201.3125 Z M-308.375 205.3125 C-309.035 206.6325 -309.695 207.9525 -310.375 209.3125 C-309.385 208.6525 -308.395 207.9925 -307.375 207.3125 C-307.705 206.6525 -308.035 205.9925 -308.375 205.3125 Z M-371.375 370.3125 C-370.375 373.3125 -370.375 373.3125 -370.375 373.3125 Z M-372.375 375.3125 C-381.34956878 431.00838644 -380.03373722 485.44506196 -366.375 540.3125 C-366.045 540.3125 -365.715 540.3125 -365.375 540.3125 C-366.12328894 530.85248022 -367.80628196 521.58068129 -369.47070312 512.24609375 C-370.15598864 508.27431884 -370.78950351 504.30003371 -371.375 500.3125 C-371.47496277 499.64243927 -371.57492554 498.97237854 -371.67791748 498.28201294 C-374.05840338 481.49739002 -373.68145884 464.50810331 -373.63574219 447.59643555 C-373.62437605 443.36102682 -373.63108437 439.12587045 -373.64264679 434.8904705 C-373.68240023 417.60826606 -373.44279795 400.54923233 -371.55847168 383.34854126 C-371.31661948 380.66463349 -371.30618197 378.00486897 -371.375 375.3125 C-371.705 375.3125 -372.035 375.3125 -372.375 375.3125 Z M-365.375 541.3125 C-364.375 544.3125 -364.375 544.3125 -364.375 544.3125 Z " fill="#B4967E" transform="translate(467.375,98.6875)"/>
<path d="M0 0 C17.82 0 35.64 0 54 0 C55.21991301 28.05799928 55.21991301 28.05799928 55.25 36.375 C55.25612305 37.45225342 55.26224609 38.52950684 55.26855469 39.6394043 C55.22730722 46.91035513 54.57187602 53.79686255 52.71582031 60.83935547 C52.16234278 62.92315277 52.16234278 62.92315277 52 66 C53.7843951 68.73060457 53.7843951 68.73060457 56 71 C60.24841782 81.17441601 55.14576574 97.25009367 52 107 C51.61545654 108.23266602 51.61545654 108.23266602 51.22314453 109.49023438 C41.4743668 140.45627677 25.85252778 170.52396277 5.1875 195.6875 C2.64681838 198.71751402 2.64681838 198.71751402 3.4375 201.625 C3.953125 202.40875 4.46875 203.1925 5 204 C7.69407393 208.4555838 8.83346377 212.20056123 8.6640625 217.375 C7.5656053 221.71713672 4.70570975 224.16295852 1.6171875 227.28515625 C-6.29391931 235.49145362 -11.87559058 245.34732251 -17.375 255.25 C-25.80102063 270.41659001 -34.87847692 284.51905489 -46.54736328 297.39599609 C-47.97061385 298.96755176 -49.37515263 300.55418669 -50.77734375 302.14453125 C-74.71459951 329.06483625 -105.69867269 348.60850617 -138 364 C-138.66628418 364.31791504 -139.33256836 364.63583008 -140.01904297 364.96337891 C-159.02899947 373.93360257 -178.91653216 380.85540871 -198.9375 387.1875 C-200.18184814 387.58638428 -201.42619629 387.98526855 -202.70825195 388.39624023 C-203.86542725 388.75403564 -205.02260254 389.11183105 -206.21484375 389.48046875 C-207.23698975 389.79910889 -208.25913574 390.11774902 -209.31225586 390.44604492 C-212.01240847 391.00255744 -213.44079068 390.92933886 -216 390 C-215.34 388.02 -214.68 386.04 -214 384 C-217.3 384.66 -220.6 385.32 -224 386 C-223.505 385.05125 -223.01 384.1025 -222.5 383.125 C-220.85575631 380.27721834 -220.85575631 380.27721834 -221 378 C-226.61442668 377.62570489 -231.09625374 378.73784596 -236.44921875 380.44140625 C-239 381 -239 381 -243 380 C-239.535 373.07 -239.535 373.07 -236 366 C-238.53171875 366.34933594 -241.0634375 366.69867187 -243.671875 367.05859375 C-246.16412253 367.40025211 -248.65651618 367.74082503 -251.14892578 368.08129883 C-252.86164609 368.31584538 -254.57421588 368.55149405 -256.28662109 368.78833008 C-268.17309978 370.43131793 -280.04330534 372.07127592 -292.0625 372.25 C-293.12597656 372.27578125 -294.18945312 372.3015625 -295.28515625 372.328125 C-298 372 -298 372 -299.81640625 370.64453125 C-302.15727962 367.39203063 -302.20224605 364.38129751 -301.6328125 360.4921875 C-300.41510689 355.3357304 -300.41510689 355.3357304 -299 353 C-294.57270827 350.65709014 -290.26644101 349.46812113 -285.375 348.375 C-263.8994054 343.24112123 -243.11158797 336.0820877 -223 327 C-222.08250977 326.5860498 -221.16501953 326.17209961 -220.21972656 325.74560547 C-186.10031161 310.20420588 -154.28611193 289.6626102 -126.58203125 264.3359375 C-124.48644734 262.44008397 -122.36566073 260.58807519 -120.2265625 258.7421875 C-109.1979019 249.10774771 -99.00945207 238.53591217 -90 227 C-89.02576789 225.82250595 -88.04761082 224.64825275 -87.06640625 223.4765625 C-71.87868924 205.27632914 -57.62904165 185.2580833 -47 164 C-46.34 164 -45.68 164 -45 164 C-44.92652344 163.34515625 -44.85304688 162.6903125 -44.77734375 162.015625 C-43.70604823 157.85964439 -41.65020903 154.47849949 -39.5625 150.75 C-33.79436954 140.15197961 -29.4219602 129.09452134 -25.1003418 117.84594727 C-23.72165689 114.2800875 -22.29767197 110.73341574 -20.86499023 107.18896484 C-18.17028163 100.36967121 -16.39818036 93.53025044 -14.81640625 86.375 C-14.02415443 83.09985371 -13.0519918 79.94997506 -12 76.75 C-8.18713353 64.6300138 -6.75067409 51.86786069 -5.08959961 39.30664062 C-4.97624268 38.47197266 -4.86288574 37.63730469 -4.74609375 36.77734375 C-4.64997803 36.04765381 -4.5538623 35.31796387 -4.45483398 34.56616211 C-3.82378409 31.00579421 -2.87697486 27.50789946 -2 24 C-1.34 16.08 -0.68 8.16 0 0 Z " fill="#B4967E" transform="translate(853,567)"/>
<path d="M0 0 C2.17463509 -0.009634 4.34829379 -0.04068448 6.52270508 -0.07226562 C18.36758556 -0.16259258 29.43213486 1.56504856 40.5793457 5.74023438 C41.72532227 6.16691406 42.87129883 6.59359375 44.05200195 7.03320312 C47.45415556 8.36223658 50.81418357 9.73486341 54.1418457 11.24023438 C54.1418457 11.90023438 54.1418457 12.56023437 54.1418457 13.24023438 C54.85985352 13.49675781 55.57786133 13.75328125 56.31762695 14.01757812 C68.86226177 19.4483813 80.14048859 30.69357709 87.1418457 42.24023438 C87.80055664 43.31789063 88.45926758 44.39554687 89.13793945 45.50585938 C103.83335002 70.68161004 106.05980853 102.19563438 99.1418457 130.24023438 C93.68373099 150.81456739 82.63985914 169.44201129 68.2199707 184.95117188 C66.1077468 187.21018217 66.1077468 187.21018217 64.27856445 189.69726562 C61.72238993 192.73944042 58.83139831 195.13358774 55.7043457 197.55273438 C55.09397461 198.02912354 54.48360352 198.5055127 53.85473633 198.99633789 C48.80226589 202.87219672 43.5643927 206.24707206 38.0793457 209.48632812 C35.98932989 210.73422321 33.95105907 212.07057457 31.9543457 213.46289062 C29.1418457 215.24023438 29.1418457 215.24023438 26.1418457 215.24023438 C28.38278384 217.60172931 30.77256284 219.49990555 33.3918457 221.42773438 C51.75916637 235.70024042 59.69640184 258.99845604 66.79589844 280.33081055 C75.11247438 305.96615954 75.11247438 305.96615954 92.4543457 325.30273438 C95.1418457 327.24023438 95.1418457 327.24023438 95.8918457 329.55273438 C93.9581896 336.48166875 87.85174935 340.42408965 82.0949707 344.17382812 C80.1418457 345.24023438 80.1418457 345.24023438 78.1418457 345.24023438 C78.1418457 345.90023438 78.1418457 346.56023437 78.1418457 347.24023438 C76.1618457 347.57023437 74.1818457 347.90023438 72.1418457 348.24023438 C72.1418457 348.90023438 72.1418457 349.56023437 72.1418457 350.24023438 C68.95043945 350.56054688 68.95043945 350.56054688 65.1418457 350.24023438 C45.46854707 334.03869432 37.85300163 302.08553937 31.25415039 278.59863281 C25.90106023 259.61949497 17.59535866 243.42145027 0.1418457 233.24023438 C-3.75132053 231.23914693 -7.55638126 230.03767189 -11.8581543 229.24023438 C-11.84483063 230.33231453 -11.84483063 230.33231453 -11.83123779 231.44645691 C-11.75099478 238.3172478 -11.69014062 245.1879684 -11.65090561 252.05910778 C-11.63005587 255.5914482 -11.60178751 259.12340051 -11.55639648 262.65551758 C-11.50450605 266.71895005 -11.48518763 270.78197666 -11.4675293 274.84570312 C-11.44688416 276.11044968 -11.42623901 277.37519623 -11.40496826 278.67826843 C-11.40451508 280.4495385 -11.40451508 280.4495385 -11.40405273 282.2565918 C-11.39072906 283.8121302 -11.39072906 283.8121302 -11.37713623 285.39909363 C-11.98343311 288.98019567 -13.37138011 290.64445433 -15.8581543 293.24023438 C-20.31679606 295.46955526 -26.02170863 294.73329699 -30.8581543 294.24023438 C-35.2425942 292.74144002 -38.5843276 290.87846686 -41.44644737 287.19757557 C-43.37146287 283.16492012 -43.27935106 279.75501177 -43.25015259 275.34074402 C-43.25609385 274.4437349 -43.26203511 273.54672578 -43.26815641 272.62253457 C-43.28446877 269.61631302 -43.27949671 266.61050443 -43.2746582 263.60424805 C-43.2820373 261.44902574 -43.29074201 259.29380763 -43.30067444 257.13859558 C-43.32402494 251.28314763 -43.32914868 245.42780564 -43.33133364 239.57231688 C-43.33699134 233.44476626 -43.36026427 227.3172848 -43.38192749 221.18977356 C-43.42048006 209.57595943 -43.44467829 197.96216505 -43.46305215 186.34830314 C-43.49641796 165.55777229 -43.55424537 144.7673012 -43.61704385 123.97684079 C-43.63851718 116.68077032 -43.65379799 109.38472016 -43.66388345 102.08862531 C-43.67091171 97.54639088 -43.68179371 93.00417095 -43.69352531 88.46194649 C-43.6980754 86.35769322 -43.70092907 84.25343549 -43.70194817 82.14917755 C-43.70352592 79.27298047 -43.71112405 76.39685771 -43.72012329 73.52067566 C-43.71905504 72.69138036 -43.71798679 71.86208507 -43.71688616 71.00765961 C-43.73451046 67.21864363 -43.90094518 63.56933532 -44.43050194 59.81474781 C-44.8581543 56.24023438 -44.8581543 56.24023438 -43.83862305 53.76757812 C-39.47888798 50.40533668 -33.06309317 51.76653295 -27.8581543 52.24023438 C-22.11665866 53.41196818 -17.9857788 56.21088664 -13.8581543 60.24023438 C-11.7799132 63.50496991 -11.61062455 66.08899121 -11.61764526 69.92230225 C-11.61489594 71.08054001 -11.61214661 72.23877777 -11.60931396 73.43211365 C-11.62009979 75.33211876 -11.62009979 75.33211876 -11.63110352 77.27050781 C-11.6316678 78.62083426 -11.63135074 79.97116133 -11.63021851 81.32148743 C-11.62964465 84.98441068 -11.64140419 88.64720297 -11.65536642 92.31009579 C-11.66786837 96.13911716 -11.66904386 99.96814154 -11.67141724 103.79718018 C-11.67763358 111.04672443 -11.69404649 118.29620837 -11.71411622 125.54572606 C-11.73647041 133.79958316 -11.74746744 142.05344314 -11.75750709 150.30732298 C-11.77841258 167.284995 -11.81359156 184.26260831 -11.8581543 201.24023438 C-9.31068205 200.45306017 -6.76392726 199.66368257 -4.2175293 198.87304688 C-3.50258301 198.65237549 -2.78763672 198.4317041 -2.05102539 198.2043457 C7.58686469 195.49829125 7.58686469 195.49829125 16.1574707 190.62304688 C18.1418457 189.24023438 18.1418457 189.24023438 22.1418457 189.24023438 C22.1418457 188.58023438 22.1418457 187.92023438 22.1418457 187.24023438 C23.8297104 186.05416729 25.57072574 184.94361195 27.3293457 183.86523438 C49.28819369 169.49358269 63.48864041 147.4399013 68.8918457 121.66210938 C72.63209004 97.66220823 70.36583285 74.4557567 55.8293457 54.36523438 C51.86262169 49.58026236 47.15835522 45.87123174 42.1418457 42.24023438 C41.49473633 41.75554687 40.84762695 41.27085937 40.1809082 40.77148438 C31.42528714 34.71274237 19.97760048 32.11990447 9.4387207 32.10742188 C7.84350586 32.10548828 7.84350586 32.10548828 6.21606445 32.10351562 C5.11907227 32.10738281 4.02208008 32.11125 2.8918457 32.11523438 C1.81032227 32.11136719 0.72879883 32.1075 -0.38549805 32.10351562 C-12.90581799 32.05986229 -12.90581799 32.05986229 -24.8581543 35.24023438 C-27.84835285 35.69791783 -30.84405258 35.9907009 -33.8581543 36.24023438 C-33.8581543 36.90023437 -33.8581543 37.56023437 -33.8581543 38.24023438 C-34.45241211 38.43617188 -35.04666992 38.63210938 -35.65893555 38.83398438 C-54.30411041 45.56132585 -67.59549589 60.99353616 -76.38549805 78.23632812 C-86.15087609 100.11196223 -89.42496505 129.62670864 -81.07739258 152.3671875 C-77.70754755 161.58748373 -77.70754755 161.58748373 -71.8581543 169.24023438 C-71.8581543 169.90023437 -71.8581543 170.56023437 -71.8581543 171.24023438 C-71.0744043 171.19898438 -70.2906543 171.15773438 -69.4831543 171.11523438 C-66.8581543 171.24023438 -66.8581543 171.24023438 -64.8581543 173.24023438 C-63.91923455 181.84699875 -66.76932486 189.70321523 -71.7956543 196.67773438 C-77.7336694 203.92538689 -77.7336694 203.92538689 -82.6784668 204.65820312 C-86.87305413 204.10682617 -88.61701879 202.13700542 -91.2331543 199.05273438 C-91.70648193 198.51173096 -92.17980957 197.97072754 -92.66748047 197.41333008 C-115.06272111 171.11207484 -118.20385739 136.81140897 -115.57397461 103.65771484 C-112.85789796 80.01037188 -103.71302789 57.13901432 -87.8581543 39.24023438 C-87.4329248 38.75087402 -87.00769531 38.26151367 -86.56958008 37.75732422 C-80.75460191 31.07207721 -80.75460191 31.07207721 -77.8581543 28.24023438 C-77.1981543 28.24023438 -76.5381543 28.24023438 -75.8581543 28.24023438 C-75.8581543 27.58023437 -75.8581543 26.92023438 -75.8581543 26.24023438 C-74.43701172 25.03515625 -74.43701172 25.03515625 -72.46362305 23.70898438 C-71.7552832 23.22816406 -71.04694336 22.74734375 -70.31713867 22.25195312 C-69.19275391 21.50365234 -69.19275391 21.50365234 -68.0456543 20.74023438 C-67.30766602 20.24136719 -66.56967773 19.7425 -65.80932617 19.22851562 C-63.83004632 17.89227783 -61.84575582 16.56405048 -59.8581543 15.24023438 C-58.8681543 14.58023437 -57.8781543 13.92023438 -56.8581543 13.24023438 C-55.5381543 13.24023438 -54.2181543 13.24023438 -52.8581543 13.24023438 C-52.8581543 12.58023437 -52.8581543 11.92023438 -52.8581543 11.24023438 C-45.73350332 8.40372228 -38.47158199 6.17486668 -31.1081543 4.05273438 C-30.20943604 3.79089355 -29.31071777 3.52905273 -28.38476562 3.25927734 C-27.07995239 2.88826904 -27.07995239 2.88826904 -25.7487793 2.50976562 C-24.97566406 2.28909424 -24.20254883 2.06842285 -23.40600586 1.84106445 C-15.65776715 0.01388781 -7.90983197 0.02110461 0 0 Z " fill="#B3957D" transform="translate(463.858154296875,364.759765625)"/>
<path d="M0 0 C1.98 0 3.96 0 6 0 C6.495 1.485 6.495 1.485 7 3 C8.2375 3.144375 9.475 3.28875 10.75 3.4375 C12.88368095 3.68642944 14.86185464 3.95964923 16.92578125 4.5625 C19.53407314 5.1126482 21.78760176 4.80139513 24.4375 4.5625 C29.43655494 4.50917675 29.43655494 4.50917675 31.7578125 6.53125 C35.84039389 12.88736475 37.30658146 19.48875423 37 27 C39.33163378 27.67258667 41.6652039 28.33847444 44 29 C44.7425 29.226875 45.485 29.45375 46.25 29.6875 C48.23776255 30.18634191 48.23776255 30.18634191 51 29 C52.72795352 28.93197033 54.45835365 28.91504355 56.1875 28.9375 C57.08855469 28.94652344 57.98960937 28.95554687 58.91796875 28.96484375 C59.60503906 28.97644531 60.29210937 28.98804688 61 29 C60.6390625 29.69867187 60.278125 30.39734375 59.90625 31.1171875 C59.4421875 32.02726563 58.978125 32.93734375 58.5 33.875 C58.0359375 34.77992188 57.571875 35.68484375 57.09375 36.6171875 C55.86094411 38.86596859 55.86094411 38.86596859 56 41 C56.969375 40.938125 57.93875 40.87625 58.9375 40.8125 C64.78649281 40.80058759 70.17657554 42.78438369 75 46 C74.625 48.4375 74.625 48.4375 74 51 C73.01 51.495 73.01 51.495 72 52 C72 53.32 72 54.64 72 56 C72.763125 56.268125 73.52625 56.53625 74.3125 56.8125 C78.41758242 58.62637363 78.41758242 58.62637363 80 61 C80 63.5625 80 63.5625 79 66 C76.4375 67.3125 76.4375 67.3125 74 68 C73.67 70.31 73.34 72.62 73 75 C73.66 75.226875 74.32 75.45375 75 75.6875 C78.92734533 77.40571358 82.41260178 79.66774607 86 82 C85.67 83.32 85.34 84.64 85 86 C80.86425173 86.0984702 77.06368679 85.77403558 73 85 C69.30250259 89.07999715 67.7410336 92.86395088 66 98 C68.31 99.98 70.62 101.96 73 104 C72.505 105.98 72.505 105.98 72 108 C67.48192771 108.37650602 67.48192771 108.37650602 65 106.4375 C63.0449065 104.70937405 63.0449065 104.70937405 60.3125 105.1875 C57.83108618 105.75815152 57.83108618 105.75815152 57 108 C56.77377919 109.70363822 56.59111527 111.41328701 56.4375 113.125 C56.31181641 114.49011719 56.31181641 114.49011719 56.18359375 115.8828125 C56.12300781 116.58148437 56.06242188 117.28015625 56 118 C52.83772601 118 49.88359512 117.82985212 46.75 117.5 C45.85796875 117.4071875 44.9659375 117.314375 44.046875 117.21875 C43.03367187 117.11046875 43.03367187 117.11046875 42 117 C41.9071875 118.3303125 41.9071875 118.3303125 41.8125 119.6875 C40.63926167 124.47070241 37.9527901 126.69813993 33.9375 129.375 C31.42932436 130.18408892 30.42915017 130.03054856 28 129 C27.195625 128.34 26.39125 127.68 25.5625 127 C22.90387314 124.92497416 21.29985386 124.37712616 18 124 C17.67 125.65 17.34 127.3 17 129 C14.75 128.9375 14.75 128.9375 12 128 C9.9101187 125.34257905 8 122.46449449 8 119 C4.7014861 119.72268235 4.7014861 119.72268235 3.3125 123.0625 C2.879375 124.031875 2.44625 125.00125 2 126 C1.01 125.67 0.02 125.34 -1 125 C-1 121.37 -1 117.74 -1 114 C-1.598125 114.825 -2.19625 115.65 -2.8125 116.5 C-3.534375 117.325 -4.25625 118.15 -5 119 C-5.99 119 -6.98 119 -8 119 C-8 116.69 -8 114.38 -8 112 C-9.83284443 110.87483915 -9.83284443 110.87483915 -12 110 C-12.99 110.33 -13.98 110.66 -15 111 C-15 111.66 -15 112.32 -15 113 C-15.66386719 113.30292969 -16.32773437 113.60585938 -17.01171875 113.91796875 C-18.33623047 114.54638672 -18.33623047 114.54638672 -19.6875 115.1875 C-20.55761719 115.59355469 -21.42773438 115.99960937 -22.32421875 116.41796875 C-28.17836645 119.87918016 -32.4791498 125.68856007 -36.89453125 130.80273438 C-39.68596682 133.92835589 -41.95903035 135.80674266 -46 137 C-48.55602613 134.44397387 -49.01760427 132.88263823 -49.5625 129.25 C-49.32837702 123.26314089 -45.45458052 119.37967548 -41.3359375 115.38671875 C-37.46267606 112 -37.46267606 112 -35 112 C-35.12375 110.741875 -35.2475 109.48375 -35.375 108.1875 C-35.43567101 101.8271559 -32.17682655 97.29471092 -29 92 C-29 91.67 -29 91.34 -29 91 C-30.485 91.99 -30.485 91.99 -32 93 C-33.32 93 -34.64 93 -36 93 C-35.25 90.5625 -35.25 90.5625 -34 88 C-31.875 87.1875 -31.875 87.1875 -30 87 C-29.67 85.68 -29.34 84.36 -29 83 C-29.5775 82.71125 -30.155 82.4225 -30.75 82.125 C-33.5 80.75 -36.25 79.375 -39 78 C-37.02 77.01 -37.02 77.01 -35 76 C-35.33 75.01 -35.66 74.02 -36 73 C-37.65 72.67 -39.3 72.34 -41 72 C-41 71.01 -41 70.02 -41 69 C-39.515 68.01 -39.515 68.01 -38 67 C-38.20644621 63.13745801 -38.6074577 59.62478239 -40 56 C-42.79378869 53.88039797 -45.62198409 52.86883125 -49 52 C-49 51.34 -49 50.68 -49 50 C-48.39671875 49.75765625 -47.7934375 49.5153125 -47.171875 49.265625 C-42.70093996 47.39071676 -39.15166283 45.83680693 -36 42 C-37.65 40.68 -39.3 39.36 -41 38 C-40.67 36.68 -40.34 35.36 -40 34 C-37.03 34.33 -34.06 34.66 -31 35 C-29.5192152 32.0384304 -29.64685963 29.16493705 -29.4375 25.875 C-29.35371094 24.59367188 -29.26992188 23.31234375 -29.18359375 21.9921875 C-29.09271484 20.51105469 -29.09271484 20.51105469 -29 19 C-27.63875 19.2475 -27.63875 19.2475 -26.25 19.5 C-22.88912497 20.10137146 -22.88912497 20.10137146 -19 20 C-15.69061412 16.69061412 -14.24793058 13.47175125 -13 9 C-12.2575 9.165 -11.515 9.33 -10.75 9.5 C-7.80993422 10.11925696 -7.80993422 10.11925696 -4 10 C-0.93951662 7.05286786 -0.4690449 4.12759513 0 0 Z " fill="#B29A83" transform="translate(915,751)"/>
<path d="M0 0 C0.87930176 0.00612305 1.75860352 0.01224609 2.66455078 0.01855469 C12.09579831 0.2449743 19.6407812 2.64583208 27.1875 8.4375 C28.1775 9.159375 29.1675 9.88125 30.1875 10.625 C34.94936174 14.70839068 39.15285461 20.18372988 40.0625 26.5 C40.10375 27.469375 40.145 28.43875 40.1875 29.4375 C40.8475 29.4375 41.5075 29.4375 42.1875 29.4375 C43.53382052 33.47646157 43.37167548 37.2087147 43.375 41.4375 C43.38724609 42.25734375 43.39949219 43.0771875 43.41210938 43.921875 C43.41404297 44.71078125 43.41597656 45.4996875 43.41796875 46.3125 C43.42207764 47.03179687 43.42618652 47.75109375 43.43041992 48.4921875 C43.1875 50.4375 43.1875 50.4375 41.1875 53.4375 C40.81625 54.7059375 40.81625 54.7059375 40.4375 56 C36.35219618 67.23458552 29.52970891 75.22982367 18.8125 80.39453125 C8.44655468 84.51314345 -3.88504503 85.31254675 -14.51171875 81.47265625 C-24.53498671 76.96303654 -32.57738785 70.90071826 -36.8125 60.4375 C-36.8125 59.7775 -36.8125 59.1175 -36.8125 58.4375 C-37.4725 58.4375 -38.1325 58.4375 -38.8125 58.4375 C-40.79713781 52.64897306 -41.11679166 47.4692392 -41.0625 41.375 C-41.07023437 40.50294922 -41.07796875 39.63089844 -41.0859375 38.73242188 C-41.07131054 33.90186825 -40.68850946 29.97118953 -38.8125 25.4375 C-38.1525 25.4375 -37.4925 25.4375 -36.8125 25.4375 C-36.6475 24.468125 -36.4825 23.49875 -36.3125 22.5 C-34.02227718 14.58832117 -26.90316413 9.08174448 -20.28125 4.7265625 C-13.48285922 1.17676985 -7.6735657 -0.09091555 0 0 Z " fill="#876340" transform="translate(312.8125,349.5625)"/>
<path d="M0 0 C1.98 0 3.96 0 6 0 C6.495 1.485 6.495 1.485 7 3 C8.2375 3.144375 9.475 3.28875 10.75 3.4375 C12.88368095 3.68642944 14.86185464 3.95964923 16.92578125 4.5625 C19.53407314 5.1126482 21.78760176 4.80139513 24.4375 4.5625 C29.43655494 4.50917675 29.43655494 4.50917675 31.7578125 6.53125 C35.84039389 12.88736475 37.30658146 19.48875423 37 27 C39.33163378 27.67258667 41.6652039 28.33847444 44 29 C44.7425 29.226875 45.485 29.45375 46.25 29.6875 C48.23776255 30.18634191 48.23776255 30.18634191 51 29 C52.72795352 28.93197033 54.45835365 28.91504355 56.1875 28.9375 C57.08855469 28.94652344 57.98960937 28.95554687 58.91796875 28.96484375 C59.60503906 28.97644531 60.29210937 28.98804688 61 29 C60.6390625 29.69867187 60.278125 30.39734375 59.90625 31.1171875 C59.4421875 32.02726563 58.978125 32.93734375 58.5 33.875 C58.0359375 34.77992188 57.571875 35.68484375 57.09375 36.6171875 C55.86094411 38.86596859 55.86094411 38.86596859 56 41 C56.969375 40.938125 57.93875 40.87625 58.9375 40.8125 C64.78649281 40.80058759 70.17657554 42.78438369 75 46 C74.625 48.4375 74.625 48.4375 74 51 C73.01 51.495 73.01 51.495 72 52 C72 53.32 72 54.64 72 56 C72.763125 56.268125 73.52625 56.53625 74.3125 56.8125 C78.41758242 58.62637363 78.41758242 58.62637363 80 61 C80 63.5625 80 63.5625 79 66 C76.4375 67.3125 76.4375 67.3125 74 68 C73.67 70.31 73.34 72.62 73 75 C73.66 75.226875 74.32 75.45375 75 75.6875 C78.92734533 77.40571358 82.41260178 79.66774607 86 82 C85.67 83.32 85.34 84.64 85 86 C80.86425173 86.0984702 77.06368679 85.77403558 73 85 C69.30250259 89.07999715 67.7410336 92.86395088 66 98 C68.31 99.98 70.62 101.96 73 104 C72.505 105.98 72.505 105.98 72 108 C67.48192771 108.37650602 67.48192771 108.37650602 65 106.4375 C63.0449065 104.70937405 63.0449065 104.70937405 60.3125 105.1875 C57.83108618 105.75815152 57.83108618 105.75815152 57 108 C56.77377919 109.70363822 56.59111527 111.41328701 56.4375 113.125 C56.31181641 114.49011719 56.31181641 114.49011719 56.18359375 115.8828125 C56.12300781 116.58148437 56.06242188 117.28015625 56 118 C52.83772601 118 49.88359512 117.82985212 46.75 117.5 C45.85796875 117.4071875 44.9659375 117.314375 44.046875 117.21875 C43.03367187 117.11046875 43.03367187 117.11046875 42 117 C41.9071875 118.3303125 41.9071875 118.3303125 41.8125 119.6875 C40.63926167 124.47070241 37.9527901 126.69813993 33.9375 129.375 C31.42932436 130.18408892 30.42915017 130.03054856 28 129 C27.195625 128.34 26.39125 127.68 25.5625 127 C22.90387314 124.92497416 21.29985386 124.37712616 18 124 C17.67 125.65 17.34 127.3 17 129 C14.75 128.9375 14.75 128.9375 12 128 C9.9101187 125.34257905 8 122.46449449 8 119 C4.7014861 119.72268235 4.7014861 119.72268235 3.3125 123.0625 C2.879375 124.031875 2.44625 125.00125 2 126 C1.01 125.67 0.02 125.34 -1 125 C-1 121.37 -1 117.74 -1 114 C-1.598125 114.825 -2.19625 115.65 -2.8125 116.5 C-3.534375 117.325 -4.25625 118.15 -5 119 C-5.99 119 -6.98 119 -8 119 C-8 116.69 -8 114.38 -8 112 C-9.83284443 110.87483915 -9.83284443 110.87483915 -12 110 C-12.99 110.33 -13.98 110.66 -15 111 C-15 111.66 -15 112.32 -15 113 C-15.66386719 113.30292969 -16.32773437 113.60585938 -17.01171875 113.91796875 C-18.33623047 114.54638672 -18.33623047 114.54638672 -19.6875 115.1875 C-20.55761719 115.59355469 -21.42773438 115.99960937 -22.32421875 116.41796875 C-28.17836645 119.87918016 -32.4791498 125.68856007 -36.89453125 130.80273438 C-39.68596682 133.92835589 -41.95903035 135.80674266 -46 137 C-48.55602613 134.44397387 -49.01760427 132.88263823 -49.5625 129.25 C-49.32837702 123.26314089 -45.45458052 119.37967548 -41.3359375 115.38671875 C-37.46267606 112 -37.46267606 112 -35 112 C-35.12375 110.741875 -35.2475 109.48375 -35.375 108.1875 C-35.43567101 101.8271559 -32.17682655 97.29471092 -29 92 C-29 91.67 -29 91.34 -29 91 C-30.485 91.99 -30.485 91.99 -32 93 C-33.32 93 -34.64 93 -36 93 C-35.25 90.5625 -35.25 90.5625 -34 88 C-31.875 87.1875 -31.875 87.1875 -30 87 C-29.67 85.68 -29.34 84.36 -29 83 C-29.5775 82.71125 -30.155 82.4225 -30.75 82.125 C-33.5 80.75 -36.25 79.375 -39 78 C-37.02 77.01 -37.02 77.01 -35 76 C-35.33 75.01 -35.66 74.02 -36 73 C-37.65 72.67 -39.3 72.34 -41 72 C-41 71.01 -41 70.02 -41 69 C-39.515 68.01 -39.515 68.01 -38 67 C-38.20644621 63.13745801 -38.6074577 59.62478239 -40 56 C-42.79378869 53.88039797 -45.62198409 52.86883125 -49 52 C-49 51.34 -49 50.68 -49 50 C-48.39671875 49.75765625 -47.7934375 49.5153125 -47.171875 49.265625 C-42.70093996 47.39071676 -39.15166283 45.83680693 -36 42 C-37.65 40.68 -39.3 39.36 -41 38 C-40.67 36.68 -40.34 35.36 -40 34 C-37.03 34.33 -34.06 34.66 -31 35 C-29.5192152 32.0384304 -29.64685963 29.16493705 -29.4375 25.875 C-29.35371094 24.59367188 -29.26992188 23.31234375 -29.18359375 21.9921875 C-29.09271484 20.51105469 -29.09271484 20.51105469 -29 19 C-27.63875 19.2475 -27.63875 19.2475 -26.25 19.5 C-22.88912497 20.10137146 -22.88912497 20.10137146 -19 20 C-15.69061412 16.69061412 -14.24793058 13.47175125 -13 9 C-12.2575 9.165 -11.515 9.33 -10.75 9.5 C-7.80993422 10.11925696 -7.80993422 10.11925696 -4 10 C-0.93951662 7.05286786 -0.4690449 4.12759513 0 0 Z M-21 43 C-23.78510211 46.92242677 -26.42211637 50.93875317 -29 55 C-26.8614515 57.1385485 -25.86724686 57.42655063 -23 58 C-23.74056641 58.83144531 -23.74056641 58.83144531 -24.49609375 59.6796875 C-25.13675781 60.40414062 -25.77742187 61.12859375 -26.4375 61.875 C-27.07558594 62.59429688 -27.71367188 63.31359375 -28.37109375 64.0546875 C-30.34545235 66.41255461 -30.9476474 67.62480635 -31.375 70.6875 C-30.93517713 74.57260198 -29.74263384 76.16668244 -27.2890625 79.09375 C-23.99780918 83.96081551 -23.61422151 89.21277484 -23.625 94.9375 C-23.62371094 95.64535645 -23.62242187 96.35321289 -23.62109375 97.08251953 C-23.73327008 102.58808274 -24.70995797 105.68181984 -28 110 C-28 110.66 -28 111.32 -28 112 C-25.59541819 110.91514216 -23.66175506 109.74172351 -21.5546875 108.1328125 C-14.44888279 102.80863812 -14.44888279 102.80863812 -10.515625 103.328125 C-8.125 104.375 -8.125 104.375 -5.69140625 105.67578125 C-1.58255399 107.69740812 2.74216037 108.33312017 7.21484375 109.19140625 C10.08481399 110.02462342 11.22674186 110.64358985 13 113 C13.6875 115.1875 13.6875 115.1875 14 117 C23.37481897 116.47917672 31.13728171 112.83962864 37.52734375 105.890625 C41.39791797 100.92150584 43.64285688 96.42856881 43 90 C43.59167969 90.45632813 44.18335938 90.91265625 44.79296875 91.3828125 C45.58316406 91.95773437 46.37335938 92.53265625 47.1875 93.125 C47.96480469 93.70507812 48.74210938 94.28515625 49.54296875 94.8828125 C51.96231295 96.26945974 51.96231295 96.26945974 54.61328125 95.4921875 C57.56278773 93.64814253 58.59520209 92.17329754 60 89 C60.91714151 82.1165078 59.81552281 75.41183789 58.453125 68.66796875 C57.34727446 62.15679701 57.41062934 56.14975531 60 50 C59.2575 50.309375 58.515 50.61875 57.75 50.9375 C55 52 55 52 51 53 C51.99 49.7 52.98 46.4 54 43 C35.38126655 26.6090924 35.38126655 26.6090924 12.3125 19.5 C-2.9116895 20.59526543 -12.28269056 31.45239529 -21 43 Z " fill="#C5A68B" transform="translate(915,751)"/>
<path d="M0 0 C0.33 0.66 0.66 1.32 1 2 C0.67 2.66 0.34 3.32 0 4 C-0.66 4 -1.32 4 -2 4 C-2.2165625 4.66 -2.433125 5.32 -2.65625 6 C-4.46351341 10.03482063 -6.92462063 13.42025079 -9.5 17 C-10.30304565 18.12559326 -10.30304565 18.12559326 -11.12231445 19.27392578 C-15.92749724 25.9728363 -20.88787425 32.53316093 -26 39 C-26.6909375 39.88558594 -27.381875 40.77117188 -28.09375 41.68359375 C-37.87240355 53.96164195 -48.85665342 66.17339727 -60.8125 76.375 C-62.92341872 78.18663912 -65.00444932 80.00420071 -67.02734375 81.9140625 C-89.52274792 103.02574234 -117.30258335 120.57906224 -145 134 C-145.85062012 134.41282227 -146.70124023 134.82564453 -147.57763672 135.25097656 C-161.12370692 141.72109883 -174.96050498 146.89492441 -189.1875 151.625 C-189.98016266 151.88906647 -190.77282532 152.15313293 -191.58950806 152.42520142 C-193.8633692 153.178728 -196.13980233 153.92366397 -198.41796875 154.6640625 C-199.09511932 154.88645096 -199.7722699 155.10883942 -200.46994019 155.33796692 C-204.29162582 156.56169829 -208.02622542 157.44312621 -212 158 C-212.02699725 155.72923158 -212.04639453 153.45837179 -212.0625 151.1875 C-212.07990234 149.29064453 -212.07990234 149.29064453 -212.09765625 147.35546875 C-212 144 -212 144 -211 141 C-208.57921948 139.55161985 -206.2057733 138.25324733 -203.6875 137 C-202.33561638 136.31569735 -200.98530775 135.62827286 -199.63671875 134.9375 C-198.73505981 134.48697266 -198.73505981 134.48697266 -197.81518555 134.02734375 C-195.92218079 133.01557015 -195.92218079 133.01557015 -194.09326172 131.50537109 C-191.75017293 129.82033663 -189.5865695 128.94736888 -186.87109375 127.9765625 C-185.84943115 127.60208984 -184.82776855 127.22761719 -183.77514648 126.84179688 C-182.67372314 126.44025391 -181.5722998 126.03871094 -180.4375 125.625 C-155.47012337 116.25806464 -131.89464478 104.22475299 -110 89 C-109.45811035 88.62407715 -108.9162207 88.2481543 -108.35791016 87.86083984 C-100.82591147 82.61698895 -93.51130099 77.14892758 -86.35400391 71.40307617 C-82.09877232 68 -82.09877232 68 -81 68 C-80.34 69.98 -79.68 71.96 -79 74 C-78.03578125 73.28972656 -77.0715625 72.57945312 -76.078125 71.84765625 C-74.80232018 70.91894539 -73.52626536 69.99057788 -72.25 69.0625 C-71.61578125 68.59392578 -70.9815625 68.12535156 -70.328125 67.64257812 C-69.4 66.9706543 -69.4 66.9706543 -68.453125 66.28515625 C-67.88754883 65.87144775 -67.32197266 65.45773926 -66.73925781 65.03149414 C-64.84470343 63.90789893 -63.15041371 63.4304947 -61 63 C-61 64.32 -61 65.64 -61 67 C-56.45827033 63.49317825 -53.26677265 59.98444999 -50.0625 55.25 C-49.18323084 53.9941336 -48.30302298 52.73892389 -47.421875 51.484375 C-46.0530953 49.51846253 -44.68901872 47.5495131 -43.328125 45.578125 C-39.11949471 39.80752883 -34.017639 35.22210988 -28.7578125 30.43798828 C-24.1074809 26.16257247 -20.00003167 21.67754834 -16.01733398 16.78344727 C-11.09387971 10.77699967 -5.57310589 5.3980345 0 0 Z " fill="#B3957D" transform="translate(776,734)"/>
<path d="M0 0 C5.98432924 3.09777043 11.07667263 6.95870199 13.82421875 13.203125 C15.18755914 21.6558354 15.38369507 29.34484396 11.44921875 37.078125 C7.03662373 42.3255353 1.61398371 46.67433892 -5.37109375 47.3515625 C-14.48190213 47.6315637 -19.82143237 46.28992249 -26.62109375 40.234375 C-32.42473624 33.93730541 -32.88511093 27.39703407 -32.55078125 19.078125 C-32.03781235 12.69679185 -29.35179432 8.18189551 -24.55078125 4.078125 C-17.14038291 -1.14343682 -8.72932387 -3.15485518 0 0 Z " fill="#876340" transform="translate(292.55078125,449.921875)"/>
</svg>
